<svg width="2437" height="1608" viewBox="0 0 2437 1608" fill="none" xmlns="http://www.w3.org/2000/svg">
<rect width="2437" height="1608" fill="url(#paint0_linear_1253_8834)"/>
<g clip-path="url(#clip0_1253_8834)">
<g opacity="0.89">
<path d="M864.099 741.799C832.699 732.899 782.599 721.099 727.699 735.799C717.499 738.499 710.599 742.999 705.699 751.499C703.299 755.799 701.099 760.399 702.299 765.099C703.299 769.099 709.099 770.499 713.599 771.199C717.999 771.899 727.999 772.399 730.699 769.199C732.099 767.499 732.099 762.799 724.799 761.299C722.099 760.699 714.699 760.499 714.199 759.199C714.199 759.199 714.499 758.299 718.499 757.099C720.299 756.499 733.399 751.199 769.099 752.299C811.599 753.699 848.699 763.599 887.999 778.999C926.399 794.099 969.599 821.399 994.899 853.999C1004.5 866.299 1016.4 886.499 1017.9 903.599C1021.7 944.999 981.299 979.799 899.199 976.999C885.199 976.499 868.099 973.199 868.099 973.199L866.399 893.399C866.399 893.399 901.099 893.099 939.599 905.799C942.899 906.899 946.199 908.999 946.499 912.199C946.699 914.599 944.799 916.699 942.599 918.599C938.599 922.099 933.099 923.599 931.899 925.099C930.999 926.199 930.999 927.799 932.199 928.699C935.099 930.899 942.199 932.399 946.999 931.999C956.699 931.099 963.099 925.599 967.999 918.199C973.199 910.399 976.099 890.499 948.499 877.899C912.799 861.499 866.199 864.599 866.199 864.599C866.199 864.599 865.999 853.799 865.499 846.599C864.699 834.799 861.399 811.499 850.599 804.899C848.599 803.699 846.199 803.499 844.799 805.399C842.699 808.099 840.599 818.499 840.199 821.199C836.099 845.399 836.399 866.999 836.099 867.299C835.999 867.399 835.899 867.599 835.699 867.699C835.299 867.999 809.499 870.999 784.599 881.799C774.699 886.099 760.499 893.799 756.199 903.799C750.599 916.699 760.399 930.799 776.899 946.399C790.899 959.599 811.499 973.499 826.699 980.699C830.599 982.499 835.199 984.799 835.199 984.799C835.199 984.799 836.199 993.999 836.999 999.399C839.899 1018.6 854.499 1015.8 858.599 1015C865.199 1013.7 866.399 1009.3 867.299 1004.2C867.799 1001.4 867.599 997.399 867.599 997.399C867.599 997.399 877.499 999.699 884.199 1000.9C903.599 1004.5 924.699 1005.1 942.899 1002.6C1015.9 992.599 1034.3 958.299 1040.2 949.099C1050.3 933.099 1071.8 888.699 1007.2 822.699C992.399 807.499 949.799 765.999 864.099 741.799ZM767.699 921.699C764.999 918.999 762.999 915.999 763.599 912.399C764.199 908.899 770.999 905.899 774.399 904.899C807.299 895.199 835.299 894.699 835.299 894.699C835.299 894.699 834.999 906.499 834.999 918.399C834.899 940.999 835.499 963.999 835.499 963.999C835.499 963.999 798.299 953.199 767.699 921.699Z" fill="white"/>
<path d="M1102.3 838.6C1117.7 832.6 1129.7 823.9 1141.7 811.5C1148.8 804.3 1154.9 792.6 1152.7 781.8C1151.6 776.5 1149.1 772.8 1144.7 768.9C1142.5 767 1137.4 764.3 1133.3 763.5C1132.1 763.3 1130.8 763.2 1130.3 762.8C1129.7 762.4 1129.2 761.7 1128.7 760.9C1126 757.5 1120.6 754.2 1116.8 752.9C1105 748.8 1089.1 751.9 1078.4 756.4C1067 761.2 1056.5 768.3 1048.5 776.9C1027.5 799.4 1036.7 817.2 1038.6 820.5C1040.2 823.3 1043.1 826.3 1043.8 829.3C1044.2 831 1043.8 833.3 1043.9 835.4C1044 840.1 1046.1 845 1049.7 848.1C1052.2 850.3 1055.9 851 1059.6 845.4C1060.8 843.5 1062.9 839.7 1062.9 839.7C1062.9 839.7 1067.2 842.2 1077.5 842.9C1085 843.5 1095.5 841.2 1102.3 838.6ZM1052.8 811.4C1052.8 811.4 1052.1 809.9 1051.6 808.8C1048.4 800.9 1055.4 792 1061.8 786.6C1074.3 776 1084.9 776.2 1084.9 776.2C1084.9 776.2 1082.4 778.2 1080.3 780.1C1062.1 796 1052.8 811.4 1052.8 811.4ZM1080.1 811.1C1087.7 801.3 1101.8 789.1 1111.7 783.2C1119.4 778.6 1126.1 777.3 1131 779.5C1134 780.8 1136.3 783.5 1136.7 787C1138 798.1 1125.2 807.3 1116.7 812.3C1097.3 823.6 1074.3 821.1 1073.7 820C1073.6 819.9 1078.4 813.4 1080.1 811.1Z" fill="white"/>
<path d="M1543.1 871.299C1518.3 854.099 1478.4 908.499 1460.8 935.499C1458.2 921.799 1467.5 904.299 1467.5 904.299C1467.5 904.299 1482.4 878.499 1484.5 873.299C1486.5 867.999 1487.7 857.199 1485.2 856.099C1482.9 854.999 1478.9 858.499 1478.9 858.499C1445.4 888.499 1440.7 921.799 1440.7 921.799C1437.5 939.699 1441.2 952.299 1446.7 961.099C1428.1 1000.7 1419 1035.3 1421.4 1055.7C1423.7 1071.3 1434.8 1082.5 1441.6 1084.9C1448.4 1087.7 1449.7 1079.5 1449.7 1079.5C1455.2 1037.2 1464.9 1009 1476.4 981.099C1511.3 989.099 1537.6 955.199 1546.9 938.899C1552.4 929.199 1555.3 916.199 1555.3 903.899C1555.3 890.199 1551.4 877.199 1543.1 871.299ZM1520.4 938.699C1516.4 942.499 1503.1 949.999 1489.4 951.499C1502.5 926.099 1518.8 907.399 1527.8 897.499C1538.3 885.699 1539.7 896.399 1539.7 896.399C1542.1 917.199 1526.9 932.899 1520.4 938.699Z" fill="white"/>
<path d="M1428.4 958.8C1430.1 952.5 1424.3 945.5 1419.1 944.2C1414.2 943.2 1376.8 950.2 1372.3 951.4C1367.5 952.7 1369.6 948.2 1369.6 948.2L1375.4 928.6C1375.4 928.6 1411.2 927.2 1416.4 926.4C1421.2 925.5 1421.5 922.1 1421.5 922.1C1421.5 922.1 1422.1 916.5 1421.9 911.3C1421.4 905.7 1416.9 906.2 1416.9 906.2C1403.1 904.8 1384.1 906.4 1384.1 906.4L1388.9 891.4C1388.9 891.4 1426.9 889.6 1441.4 886.2C1448.8 884.4 1444.5 877.2 1444.5 877.2C1435.5 859.2 1425.1 860.2 1425.1 860.2C1395.2 859.2 1351.7 867.1 1347 869.5C1342.6 871.5 1343 874.8 1348.8 882.1C1355 889.8 1365.5 889.1 1365.5 889.1L1356.3 908C1348.8 908.5 1346.2 910.9 1346.2 910.9C1341.9 915.5 1347.8 929.1 1347.8 929.1C1347.8 929.1 1334.8 958.2 1344.2 973.6C1354.3 989.7 1366.3 989 1366.3 989C1389 990.4 1426.4 966.6 1428.4 958.8Z" fill="white"/>
<path d="M1297.7 843.199C1297.7 843.199 1292.4 840.698 1291.1 845.998C1289.8 851.198 1291.8 856.798 1291.8 856.798C1305 901.498 1308 927.898 1308 927.898C1308 927.898 1308.6 935.698 1307.1 936.098C1306 936.898 1304.9 935.798 1304.9 935.798C1303.4 935.898 1288.9 911.598 1288.9 911.598L1286.1 906.898C1270.2 881.298 1260.5 872.498 1260.5 872.498C1258.2 870.398 1252.5 864.598 1245.2 872.598C1238 880.598 1232.3 906.498 1230.1 930.798C1228.2 955.098 1229.6 968.899 1233.2 974.699C1237.1 980.599 1244.6 982.598 1250.8 977.598C1257.4 972.598 1256.1 940.599 1257.2 924.199C1258.2 907.699 1259.8 910.699 1259.8 910.699C1261.2 910.299 1268.8 925.398 1268.8 925.398C1268.8 925.398 1288.6 965.798 1301 971.798C1313.6 977.798 1323.7 968.199 1327.5 959.199C1331.4 950.099 1338 920.098 1328.2 886.898C1318.1 853.398 1297.7 843.199 1297.7 843.199Z" fill="white"/>
<path d="M1092.2 928.7C1091.7 917.6 1090.4 889.4 1087.3 876.6C1086 871.1 1083.7 866.1 1078.3 864C1077.7 863.8 1077 863.6 1076.5 863.5C1073.1 862.8 1071.2 867.5 1070.3 869.8C1067.6 876.7 1065.7 893 1065.2 898.1C1063.6 913.6 1062.3 950.2 1065 968.9C1066.1 976.7 1068.7 981.8 1076.6 983.5C1079.8 984.2 1085.7 984 1088.2 982.4C1090.4 981 1092 978.3 1092.5 975.9C1094 969.4 1093.4 960.2 1093.1 953.2C1092.8 945.2 1092.6 937 1092.2 928.7Z" fill="white"/>
<path d="M1220.1 867C1203 857.9 1174.9 857.9 1157.4 860.1C1139.4 862.3 1115.3 867.9 1105.1 882.7C1101.2 888.3 1098.9 897 1100.7 904C1101.7 907.9 1104.5 910.9 1108.6 913C1115.9 916.8 1140.2 917.6 1151 918.8C1161.2 919.9 1180 921.7 1190.4 926C1190.4 926 1200.2 929.4 1200.1 935C1200.1 937.8 1198 940 1195.9 941.5C1180.5 952.4 1159.4 955.5 1140.6 955.2C1134.2 955.1 1129 954.1 1122.5 951.3C1119.7 950.1 1116.2 947.9 1116.7 944.1C1117.5 938.1 1124.4 936.6 1129.8 937.1C1132.9 937.4 1136.8 938.7 1139.8 939.8C1151.9 944.6 1157.4 948.6 1168 946.9C1172 946.3 1185.7 943.3 1187.5 937.7C1188 936.3 1187.3 934.8 1186.3 933.8C1184.9 932.3 1176.6 929.1 1174.4 928.3C1166.3 925.4 1151 922.8 1142.5 922.5C1131.3 922.1 1116 924.4 1109.6 933.6C1103.9 941.9 1102.6 958.7 1131.1 972.9C1144.3 979.5 1160.4 982.4 1175.2 980.8C1183.7 979.8 1208 976 1217.2 956.7C1222.2 946.3 1221.7 932.4 1216.3 922.5C1212.8 916 1208.5 907.3 1176.7 903.3C1171.6 902.7 1134.2 898.3 1130.8 897.8C1128.9 897.5 1120.1 896.5 1123.2 893.1C1124.1 892.1 1126.7 891.4 1128.3 891C1147.9 885.6 1172.8 886.3 1193.5 885.1C1198.1 884.8 1208.6 884.2 1213.6 882.6C1218.4 881.1 1222.4 877.7 1223.5 872.4C1224.1 869.7 1222.7 868.4 1220.1 867Z" fill="white"/>
<path d="M1730.1 891.099H1671.4C1670.8 870.799 1668.7 850.799 1665.3 831.099C1664.7 827.699 1661.8 825.299 1658.3 825.299H1642.5C1639.4 825.299 1637.1 828.099 1637.6 831.199C1641.3 850.799 1643.5 870.899 1644.2 891.199H1584.5C1581.8 891.199 1579.6 893.399 1579.6 896.199V914.199C1579.6 916.899 1581.8 919.199 1584.5 919.199H1644.2C1643.5 939.499 1641.3 959.499 1637.6 979.199C1637 982.199 1639.4 985.099 1642.5 985.099H1658.3C1661.7 985.099 1664.7 982.599 1665.3 979.299C1668.7 959.599 1670.8 939.599 1671.4 919.299H1730.1C1732.8 919.299 1735 917.099 1735 914.299V896.299C1735 893.299 1732.8 891.099 1730.1 891.099Z" fill="white"/>
<path d="M921.199 673.399C923.499 674.999 926.799 673.799 929.099 671.299C949.199 649.599 971.299 630.699 996.399 613.599C1161.1 501.199 1402.9 517.599 1544.4 659.999C1590.9 706.499 1616.5 756.499 1629.9 795.799C1630.9 798.699 1633.6 800.599 1636.6 800.599H1652.8C1656.2 800.599 1658.6 797.299 1657.5 794.099C1639.9 741.999 1605.8 684.899 1556.3 638.399C1407.8 498.599 1167.2 483.099 999.499 597.299C972.099 615.799 944.799 639.499 920.899 666.599C918.599 669.199 919.399 672.099 921.199 673.399Z" fill="white"/>
</g>
</g>
<defs>
<linearGradient id="paint0_linear_1253_8834" x1="1218.5" y1="0" x2="1218.5" y2="1608" gradientUnits="userSpaceOnUse">
<stop stop-color="#011D32"/>
<stop offset="0.605" stop-color="#014D63"/>
<stop offset="1" stop-color="#007C94"/>
</linearGradient>
<clipPath id="clip0_1253_8834">
<rect width="1033" height="565" fill="white" transform="translate(702 521)"/>
</clipPath>
</defs>
</svg>
