<svg width="918" height="727" viewBox="0 0 918 727" fill="none" xmlns="http://www.w3.org/2000/svg">
<g clip-path="url(#clip0_1253_8911)">
<rect width="918" height="727" rx="8" fill="#CFF469"/>
<path d="M400.329 322L401.612 313.714H403.053L401.77 322H400.329ZM403.212 322L404.495 313.714H405.925L404.642 322H403.212ZM399.398 319.9V318.697H406.402V319.9H399.398ZM399.841 317.017V315.814H406.844V317.017H399.841ZM411.143 322.216C410.394 322.216 409.762 322.098 409.247 321.864C408.733 321.622 408.343 321.296 408.078 320.888C407.813 320.471 407.681 319.995 407.681 319.457H409.486C409.486 319.669 409.542 319.866 409.656 320.048C409.777 320.229 409.959 320.377 410.201 320.49C410.443 320.596 410.757 320.649 411.143 320.649C411.491 320.649 411.782 320.604 412.017 320.513C412.252 320.422 412.429 320.297 412.551 320.138C412.672 319.972 412.732 319.783 412.732 319.571C412.732 319.306 412.619 319.098 412.392 318.947C412.165 318.788 411.798 318.685 411.291 318.64L410.666 318.583C409.841 318.515 409.183 318.258 408.691 317.811C408.199 317.365 407.953 316.775 407.953 316.041C407.953 315.511 408.078 315.053 408.328 314.667C408.585 314.281 408.941 313.986 409.395 313.782C409.849 313.57 410.386 313.464 411.007 313.464C411.658 313.464 412.214 313.577 412.675 313.804C413.145 314.024 413.504 314.338 413.754 314.747C414.004 315.148 414.128 315.621 414.128 316.165H412.312C412.312 315.961 412.263 315.776 412.165 315.609C412.066 315.435 411.919 315.295 411.722 315.189C411.533 315.083 411.294 315.03 411.007 315.03C410.734 315.03 410.504 315.076 410.314 315.167C410.133 315.257 409.997 315.382 409.906 315.541C409.815 315.692 409.769 315.859 409.769 316.041C409.769 316.275 409.853 316.479 410.019 316.654C410.186 316.828 410.458 316.93 410.837 316.96L411.472 317.017C412.078 317.07 412.611 317.202 413.073 317.414C413.534 317.618 413.894 317.902 414.151 318.265C414.416 318.621 414.548 319.056 414.548 319.571C414.548 320.101 414.408 320.566 414.128 320.967C413.856 321.361 413.466 321.667 412.959 321.886C412.452 322.106 411.847 322.216 411.143 322.216ZM417.579 319.628V318.016H419.066C419.354 318.016 419.6 317.959 419.804 317.845C420.016 317.732 420.179 317.573 420.292 317.369C420.406 317.157 420.462 316.915 420.462 316.642C420.462 316.355 420.406 316.109 420.292 315.904C420.179 315.692 420.016 315.534 419.804 315.428C419.6 315.314 419.354 315.257 419.066 315.257H417.579V313.645H418.975C419.679 313.645 420.281 313.763 420.78 313.997C421.287 314.232 421.673 314.565 421.938 314.996C422.21 315.428 422.347 315.946 422.347 316.551V316.733C422.347 317.323 422.21 317.838 421.938 318.277C421.673 318.708 421.287 319.041 420.78 319.276C420.281 319.51 419.679 319.628 418.975 319.628H417.579ZM415.944 322V313.645H417.806V322H415.944ZM427.602 322.216C426.853 322.216 426.198 322.087 425.638 321.83C425.086 321.565 424.628 321.221 424.265 320.797C423.902 320.365 423.629 319.9 423.448 319.401C423.274 318.901 423.187 318.421 423.187 317.959V317.709C423.187 317.195 423.277 316.688 423.459 316.188C423.648 315.681 423.928 315.223 424.299 314.815C424.67 314.406 425.131 314.081 425.684 313.838C426.236 313.589 426.876 313.464 427.602 313.464C428.329 313.464 428.968 313.589 429.521 313.838C430.073 314.081 430.535 314.406 430.905 314.815C431.276 315.223 431.556 315.681 431.745 316.188C431.935 316.688 432.029 317.195 432.029 317.709V317.959C432.029 318.421 431.938 318.901 431.757 319.401C431.575 319.9 431.303 320.365 430.939 320.797C430.576 321.221 430.115 321.565 429.555 321.83C429.002 322.087 428.351 322.216 427.602 322.216ZM427.602 320.479C427.996 320.479 428.348 320.411 428.658 320.275C428.976 320.138 429.244 319.949 429.464 319.707C429.691 319.465 429.861 319.185 429.975 318.867C430.088 318.549 430.145 318.209 430.145 317.845C430.145 317.459 430.084 317.108 429.963 316.79C429.85 316.464 429.679 316.184 429.452 315.95C429.233 315.708 428.968 315.522 428.658 315.394C428.348 315.265 427.996 315.201 427.602 315.201C427.209 315.201 426.857 315.265 426.547 315.394C426.236 315.522 425.968 315.708 425.741 315.95C425.521 316.184 425.355 316.464 425.241 316.79C425.128 317.108 425.071 317.459 425.071 317.845C425.071 318.209 425.128 318.549 425.241 318.867C425.355 319.185 425.521 319.465 425.741 319.707C425.968 319.949 426.236 320.138 426.547 320.275C426.857 320.411 427.209 320.479 427.602 320.479ZM434.966 322V315.11H436.828V322H434.966ZM432.639 315.337V313.714H439.166V315.337H432.639ZM440.474 322V313.714H442.335V322H440.474ZM444.333 322V313.714H446.195V322H444.333ZM445.968 318.663V317.119H449.169V318.663H445.968ZM445.968 315.257V313.714H449.305V315.257H445.968ZM452.41 318.856L449.992 313.714H451.899L453.636 317.562L453.306 317.459H454.26L453.908 317.562L455.474 313.714H457.279L455.054 318.856H452.41ZM452.818 322V318.595H454.646V322H452.818ZM459.834 322L457.791 313.714H459.709L461.31 320.751L460.913 320.49H461.946L461.503 320.751L462.74 314.02H464.284L462.661 322H459.834ZM464.772 322L463.024 314.02H464.647L466.078 320.751L465.646 320.49H466.634L466.259 320.751L467.655 313.714H469.472L467.655 322H464.772ZM470.758 322V313.645H472.619V322H470.758ZM475.786 322L473.357 318.436H475.4L477.943 322H475.786ZM472.12 319.344V317.879H474.163C474.435 317.879 474.67 317.827 474.867 317.721C475.071 317.607 475.226 317.452 475.332 317.255C475.446 317.051 475.502 316.816 475.502 316.551C475.502 316.287 475.446 316.056 475.332 315.859C475.226 315.655 475.071 315.499 474.867 315.394C474.67 315.28 474.435 315.223 474.163 315.223H472.12V313.645H474.015C474.704 313.645 475.302 313.751 475.809 313.963C476.316 314.168 476.706 314.474 476.978 314.883C477.25 315.291 477.387 315.806 477.387 316.427V316.608C477.387 317.221 477.247 317.732 476.967 318.141C476.694 318.542 476.305 318.844 475.797 319.049C475.298 319.245 474.704 319.344 474.015 319.344H472.12ZM478.38 322L481.115 313.714H484.123L486.961 322H485.031L482.738 314.996L483.329 315.235H481.864L482.477 314.996L480.241 322H478.38ZM480.457 319.945L481.024 318.402H484.271L484.85 319.945H480.457ZM489.79 319.628V318.016H491.277C491.565 318.016 491.811 317.959 492.015 317.845C492.227 317.732 492.39 317.573 492.503 317.369C492.617 317.157 492.673 316.915 492.673 316.642C492.673 316.355 492.617 316.109 492.503 315.904C492.39 315.692 492.227 315.534 492.015 315.428C491.811 315.314 491.565 315.257 491.277 315.257H489.79V313.645H491.186C491.89 313.645 492.492 313.763 492.991 313.997C493.498 314.232 493.884 314.565 494.149 314.996C494.422 315.428 494.558 315.946 494.558 316.551V316.733C494.558 317.323 494.422 317.838 494.149 318.277C493.884 318.708 493.498 319.041 492.991 319.276C492.492 319.51 491.89 319.628 491.186 319.628H489.79ZM488.156 322V313.645H490.017V322H488.156ZM497.475 319.628V318.016H498.962C499.25 318.016 499.495 317.959 499.7 317.845C499.912 317.732 500.074 317.573 500.188 317.369C500.301 317.157 500.358 316.915 500.358 316.642C500.358 316.355 500.301 316.109 500.188 315.904C500.074 315.692 499.912 315.534 499.7 315.428C499.495 315.314 499.25 315.257 498.962 315.257H497.475V313.645H498.871C499.575 313.645 500.177 313.763 500.676 313.997C501.183 314.232 501.569 314.565 501.834 314.996C502.106 315.428 502.242 315.946 502.242 316.551V316.733C502.242 317.323 502.106 317.838 501.834 318.277C501.569 318.708 501.183 319.041 500.676 319.276C500.177 319.51 499.575 319.628 498.871 319.628H497.475ZM495.84 322V313.645H497.702V322H495.84ZM503.525 322V313.714H505.341V322H503.525ZM505.114 322V320.456H508.735V322H505.114ZM505.114 318.561V317.017H508.474V318.561H505.114ZM505.114 315.257V313.714H508.656V315.257H505.114ZM512.013 322.045V320.309H513.557C513.943 320.309 514.291 320.252 514.601 320.138C514.911 320.017 515.176 319.851 515.396 319.639C515.615 319.419 515.782 319.158 515.895 318.856C516.009 318.545 516.065 318.205 516.065 317.834C516.065 317.448 516.009 317.104 515.895 316.801C515.782 316.498 515.615 316.241 515.396 316.029C515.176 315.817 514.911 315.658 514.601 315.552C514.291 315.439 513.943 315.382 513.557 315.382H512.013V313.645H513.455C514.204 313.645 514.858 313.755 515.418 313.975C515.978 314.194 516.448 314.493 516.826 314.871C517.204 315.25 517.484 315.685 517.666 316.177C517.855 316.661 517.95 317.172 517.95 317.709V317.959C517.95 318.458 517.855 318.954 517.666 319.446C517.484 319.93 517.204 320.369 516.826 320.763C516.448 321.149 515.978 321.459 515.418 321.694C514.858 321.928 514.204 322.045 513.455 322.045H512.013ZM510.378 322.045V313.645H512.24V322.045H510.378Z" fill="#503658"/>
<path d="M238.559 405.945V396.216C238.559 394.183 238.883 392.41 239.532 390.897C240.224 389.383 241.305 388.043 242.775 386.875C244.245 385.664 246.191 384.54 248.613 383.502L256.267 380.194C258.213 379.372 259.64 378.356 260.548 377.145C261.499 375.935 261.975 374.4 261.975 372.54C261.975 370.637 261.391 369.081 260.223 367.87C259.056 366.659 257.348 366.054 255.099 366.054C252.85 366.054 251.142 366.681 249.975 367.935C248.807 369.189 248.223 370.875 248.223 372.994H237.91C237.91 370.01 238.559 367.329 239.856 364.951C241.153 362.529 243.078 360.627 245.629 359.243C248.18 357.859 251.337 357.167 255.099 357.167C258.861 357.167 261.996 357.837 264.504 359.178C267.056 360.518 268.98 362.313 270.277 364.562C271.618 366.81 272.288 369.34 272.288 372.151V372.929C272.288 376.562 271.294 379.567 269.304 381.945C267.315 384.281 264.245 386.356 260.094 388.172L252.505 391.481C251.207 392.043 250.278 392.626 249.715 393.232C249.196 393.837 248.937 394.659 248.937 395.697V398.94L246.407 396.799H272.353V405.945H238.559ZM297.186 407.178C293.423 407.178 290.202 406.572 287.521 405.362C284.84 404.107 282.656 402.421 280.969 400.302C279.326 398.183 278.094 395.74 277.272 392.972C276.494 390.162 276.105 387.199 276.105 384.086V380.389C276.105 376.064 276.861 372.151 278.375 368.648C279.888 365.146 282.202 362.356 285.315 360.281C288.429 358.205 292.386 357.167 297.186 357.167C301.986 357.167 305.921 358.205 308.991 360.281C312.104 362.356 314.418 365.146 315.931 368.648C317.445 372.151 318.202 376.064 318.202 380.389V384.086C318.202 387.199 317.791 390.162 316.969 392.972C316.191 395.74 314.958 398.183 313.272 400.302C311.629 402.421 309.467 404.107 306.786 405.362C304.148 406.572 300.948 407.178 297.186 407.178ZM297.186 397.383C300.688 397.383 303.283 396.172 304.969 393.751C306.699 391.286 307.564 387.481 307.564 382.335C307.564 376.886 306.677 372.972 304.904 370.594C303.175 368.173 300.602 366.962 297.186 366.962C293.683 366.962 291.067 368.173 289.337 370.594C287.607 372.972 286.742 376.843 286.742 382.205C286.742 387.394 287.586 391.221 289.272 393.686C291.002 396.151 293.64 397.383 297.186 397.383ZM322.528 405.945V396.216C322.528 394.183 322.852 392.41 323.501 390.897C324.193 389.383 325.274 388.043 326.744 386.875C328.214 385.664 330.16 384.54 332.582 383.502L340.236 380.194C342.182 379.372 343.609 378.356 344.517 377.145C345.468 375.935 345.944 374.4 345.944 372.54C345.944 370.637 345.36 369.081 344.193 367.87C343.025 366.659 341.317 366.054 339.068 366.054C336.82 366.054 335.112 366.681 333.944 367.935C332.776 369.189 332.193 370.875 332.193 372.994H321.879C321.879 370.01 322.528 367.329 323.825 364.951C325.122 362.529 327.047 360.627 329.598 359.243C332.149 357.859 335.306 357.167 339.068 357.167C342.83 357.167 345.966 357.837 348.474 359.178C351.025 360.518 352.949 362.313 354.247 364.562C355.587 366.81 356.257 369.34 356.257 372.151V372.929C356.257 376.562 355.263 379.567 353.274 381.945C351.284 384.281 348.214 386.356 344.063 388.172L336.474 391.481C335.176 392.043 334.247 392.626 333.685 393.232C333.166 393.837 332.906 394.659 332.906 395.697V398.94L330.376 396.799H356.322V405.945H322.528ZM367.793 405.945V365.6L370.647 367.805H358.517V358.594H378.366V405.945H367.793ZM404.292 405.945L392.616 358.594H403.578L412.724 398.81L410.454 397.318H416.356L413.827 398.81L420.897 360.346H429.719L420.443 405.945H404.292ZM432.508 405.945L422.519 360.346H431.794L439.967 398.81L437.502 397.318H443.146L441.005 398.81L448.983 358.594H459.362L448.983 405.945H432.508ZM461.474 405.945V370.4H469.712V385.643H469.518C469.518 380.627 470.577 376.756 472.696 374.032C474.858 371.308 477.972 369.945 482.036 369.945H483.399V378.897H480.804C477.95 378.897 475.745 379.675 474.188 381.232C472.631 382.745 471.853 384.951 471.853 387.848V405.945H461.474ZM506.749 405.945V395.437H504.998V384.021C504.998 382.205 504.565 380.843 503.701 379.935C502.836 379.027 501.452 378.572 499.549 378.572C498.598 378.572 497.344 378.594 495.787 378.637C494.23 378.681 492.63 378.745 490.987 378.832C489.344 378.918 487.852 379.005 486.512 379.091V370.335C487.506 370.248 488.674 370.162 490.014 370.075C491.355 369.989 492.739 369.924 494.166 369.881C495.593 369.837 496.933 369.816 498.187 369.816C501.82 369.816 504.868 370.335 507.333 371.373C509.841 372.41 511.744 373.989 513.041 376.108C514.338 378.183 514.987 380.864 514.987 384.151V405.945H506.749ZM495.398 406.853C492.847 406.853 490.598 406.399 488.652 405.491C486.749 404.583 485.257 403.286 484.176 401.599C483.095 399.87 482.555 397.816 482.555 395.437C482.555 392.843 483.225 390.724 484.566 389.081C485.906 387.394 487.787 386.162 490.209 385.383C492.63 384.562 495.42 384.151 498.576 384.151H506.165V389.924H498.511C496.695 389.924 495.29 390.378 494.295 391.286C493.344 392.151 492.868 393.34 492.868 394.853C492.868 396.28 493.344 397.448 494.295 398.356C495.29 399.221 496.695 399.653 498.511 399.653C499.679 399.653 500.717 399.459 501.625 399.07C502.576 398.637 503.355 397.924 503.96 396.929C504.566 395.935 504.911 394.551 504.998 392.778L507.463 395.372C507.247 397.837 506.641 399.913 505.647 401.599C504.695 403.286 503.355 404.583 501.625 405.491C499.938 406.399 497.863 406.853 495.398 406.853ZM520.549 418.918V370.4H528.787V385.772L527.684 385.708C527.857 382.162 528.592 379.178 529.89 376.756C531.187 374.291 532.938 372.454 535.144 371.243C537.349 369.989 539.836 369.362 542.603 369.362C545.068 369.362 547.295 369.816 549.284 370.724C551.317 371.632 553.046 372.908 554.473 374.551C555.944 376.151 557.046 378.054 557.781 380.259C558.56 382.421 558.949 384.799 558.949 387.394V388.886C558.949 391.437 558.581 393.837 557.846 396.086C557.111 398.291 556.03 400.216 554.603 401.859C553.219 403.502 551.511 404.799 549.479 405.751C547.49 406.659 545.198 407.113 542.603 407.113C539.922 407.113 537.5 406.572 535.338 405.491C533.219 404.367 531.511 402.68 530.214 400.432C528.917 398.14 528.203 395.243 528.073 391.74L530.928 395.632V418.918H520.549ZM539.684 398.421C541.457 398.421 542.992 397.989 544.29 397.124C545.63 396.259 546.668 395.048 547.403 393.491C548.138 391.935 548.506 390.14 548.506 388.108C548.506 386.075 548.138 384.302 547.403 382.789C546.668 381.275 545.652 380.108 544.354 379.286C543.057 378.421 541.5 377.989 539.684 377.989C538.127 377.989 536.657 378.356 535.273 379.091C533.89 379.827 532.765 380.886 531.9 382.27C531.079 383.61 530.668 385.254 530.668 387.199V389.599C530.668 391.459 531.101 393.059 531.965 394.399C532.873 395.697 534.019 396.691 535.403 397.383C536.787 398.075 538.214 398.421 539.684 398.421ZM562.914 418.918V370.4H571.152V385.772L570.049 385.708C570.222 382.162 570.957 379.178 572.254 376.756C573.552 374.291 575.303 372.454 577.508 371.243C579.714 369.989 582.2 369.362 584.968 369.362C587.433 369.362 589.66 369.816 591.649 370.724C593.681 371.632 595.411 372.908 596.838 374.551C598.308 376.151 599.411 378.054 600.146 380.259C600.925 382.421 601.314 384.799 601.314 387.394V388.886C601.314 391.437 600.946 393.837 600.211 396.086C599.476 398.291 598.395 400.216 596.968 401.859C595.584 403.502 593.876 404.799 591.843 405.751C589.854 406.659 587.562 407.113 584.968 407.113C582.287 407.113 579.865 406.572 577.703 405.491C575.584 404.367 573.876 402.68 572.579 400.432C571.281 398.14 570.568 395.243 570.438 391.74L573.292 395.632V418.918H562.914ZM582.049 398.421C583.822 398.421 585.357 397.989 586.654 397.124C587.995 396.259 589.033 395.048 589.768 393.491C590.503 391.935 590.871 390.14 590.871 388.108C590.871 386.075 590.503 384.302 589.768 382.789C589.033 381.275 588.016 380.108 586.719 379.286C585.422 378.421 583.865 377.989 582.049 377.989C580.492 377.989 579.022 378.356 577.638 379.091C576.254 379.827 575.13 380.886 574.265 382.27C573.444 383.61 573.033 385.254 573.033 387.199V389.599C573.033 391.459 573.465 393.059 574.33 394.399C575.238 395.697 576.384 396.691 577.768 397.383C579.152 398.075 580.579 398.421 582.049 398.421ZM621.56 407.178C618.532 407.178 615.851 406.659 613.516 405.621C611.224 404.583 609.3 403.199 607.743 401.47C606.23 399.697 605.062 397.729 604.241 395.567C603.462 393.362 603.073 391.113 603.073 388.821V387.524C603.073 385.145 603.462 382.875 604.241 380.713C605.062 378.508 606.23 376.54 607.743 374.81C609.257 373.081 611.138 371.718 613.387 370.724C615.678 369.686 618.273 369.167 621.17 369.167C624.976 369.167 628.176 370.032 630.77 371.762C633.408 373.448 635.419 375.675 636.803 378.443C638.186 381.167 638.878 384.151 638.878 387.394V390.897H607.419V384.994H632.586L629.214 387.718C629.214 385.599 628.911 383.783 628.305 382.27C627.7 380.756 626.792 379.61 625.581 378.832C624.414 378.01 622.943 377.6 621.17 377.6C619.354 377.6 617.819 378.01 616.565 378.832C615.311 379.654 614.36 380.864 613.711 382.464C613.062 384.021 612.738 385.945 612.738 388.237C612.738 390.356 613.041 392.216 613.646 393.816C614.251 395.372 615.203 396.583 616.5 397.448C617.797 398.313 619.484 398.745 621.56 398.745C623.462 398.745 625.019 398.378 626.23 397.643C627.441 396.908 628.262 395.999 628.695 394.918H638.23C637.711 397.297 636.695 399.416 635.181 401.275C633.668 403.135 631.765 404.583 629.473 405.621C627.181 406.659 624.543 407.178 621.56 407.178ZM657.172 407.113C654.664 407.113 652.372 406.659 650.296 405.751C648.264 404.843 646.491 403.589 644.977 401.989C643.464 400.345 642.296 398.421 641.475 396.216C640.696 394.01 640.307 391.632 640.307 389.081V387.589C640.307 385.037 640.675 382.659 641.41 380.454C642.188 378.248 643.291 376.324 644.718 374.681C646.188 372.994 647.939 371.697 649.972 370.789C652.004 369.837 654.274 369.362 656.783 369.362C659.637 369.362 662.101 369.989 664.177 371.243C666.253 372.454 667.874 374.27 669.042 376.691C670.21 379.07 670.858 382.01 670.988 385.513L668.264 382.983V358.594H678.707V405.945H670.469V391.221H671.896C671.766 394.594 671.053 397.47 669.755 399.848C668.501 402.226 666.793 404.043 664.631 405.297C662.469 406.507 659.983 407.113 657.172 407.113ZM659.766 398.421C661.366 398.421 662.815 398.075 664.112 397.383C665.453 396.648 666.512 395.589 667.291 394.205C668.112 392.821 668.523 391.156 668.523 389.21V386.81C668.523 384.908 668.112 383.308 667.291 382.01C666.469 380.713 665.388 379.718 664.047 379.027C662.707 378.335 661.258 377.989 659.701 377.989C657.972 377.989 656.415 378.443 655.031 379.351C653.691 380.216 652.631 381.427 651.853 382.983C651.074 384.497 650.685 386.27 650.685 388.302C650.685 390.378 651.074 392.172 651.853 393.686C652.631 395.199 653.712 396.367 655.096 397.189C656.48 398.01 658.037 398.421 659.766 398.421Z" fill="#503658"/>
<path d="M-96.977 210.843C-86.7255 210.69 -76.5726 211.921 -66.4501 213.218C-44.41 216.057 -22.7412 221.108 -1.79961 228.29C30.9146 239.326 61.342 255.822 88.0813 277.016C89.8873 278.473 92.0651 279.638 92.9226 281.97C92.5204 282.436 92.1258 282.916 91.7084 283.368C60.3443 317.591 28.9802 351.828 -2.38391 386.081C-14.3933 399.193 -26.423 412.278 -38.4729 425.337C-41.1136 424.121 -43.1774 422.125 -45.5525 420.551C-61.0701 410.302 -78.4848 405.181 -96.9846 402.995V345.455C-95.7477 344.508 -95.3001 343.08 -94.6172 341.812C-88.4329 330.273 -78.9097 322.807 -65.6381 319.886C-61.0821 318.889 -56.3981 318.543 -51.7369 318.859L-31.7042 320.199C-32.463 318.844 -33.6848 318.429 -34.6865 317.802C-40.4838 314.16 -46.5087 310.846 -52.655 307.757C-60.8499 303.682 -68.2856 298.334 -74.6605 291.928C-83.9104 282.603 -90.4361 271.917 -92.2952 258.907C-93.1982 252.554 -94.4122 246.253 -95.4746 239.923C-95.6946 238.597 -95.8616 237.271 -96.9922 236.281L-96.977 210.843Z" fill="#503658"/>
<path d="M111.736 667.666C111.227 673.537 110.651 679.386 108.966 685.112C107.359 690.816 104.589 696.157 100.816 700.825L100.156 701.357L100.217 701.313C95.277 705.422 89.457 707.986 83.3941 710.127C69.5459 715.015 55.6976 719.881 41.8721 724.82C40.5214 725.301 38.8368 725.308 38.0021 726.794H-68.9216C-68.8458 725.767 -69.7413 725.338 -70.3635 724.82C-81.0855 715.598 -87.816 704.067 -91.8452 690.932C-94.4783 682.41 -95.4344 673.683 -95.8594 664.861C-95.3965 659.565 -95.5635 654.24 -94.7591 648.952C-91.815 629.647 -85.4865 611.618 -73.5125 595.628C-73.1558 595.148 -72.6701 594.718 -72.7005 594.048C-72.4543 593.957 -72.243 593.796 -72.0951 593.586C-71.9472 593.376 -71.8699 593.128 -71.8735 592.875V592.955C-70.6974 592.584 -70.204 591.498 -69.4756 590.726C-55.7563 575.654 -38.2886 568.523 -17.6262 568.144C-2.12377 567.882 12.7262 571.101 27.1815 576.157C47.7756 583.361 66.7534 593.276 82.9616 607.684C94.5865 618.021 103.29 630.15 108.207 644.69C110.681 652.193 111.508 659.886 111.736 667.666ZM4.56893 707.731C18.3783 707.686 32.1565 706.467 45.7419 704.088C54.1875 702.573 62.5344 700.701 70.2591 696.855C73.6518 695.214 76.6659 692.935 79.1219 690.153C81.578 687.371 83.4258 684.143 84.5551 680.661C88.6906 668.78 87.1579 657.489 80.7611 646.701C76.5634 639.762 71.0958 633.607 64.6212 628.533C48.4054 615.493 29.7159 606.847 9.72887 600.713C0.05405 597.741 -9.85603 596.044 -20.0848 596.437C-36.2702 597.071 -48.9194 603.794 -57.7216 616.834C-66.0683 629.121 -70.2095 643.605 -69.5667 658.261C-69.0583 672.058 -63.9059 684.034 -52.759 693.169C-45.0874 699.463 -35.9362 702.85 -26.2006 704.926C-15.6456 707.235 -4.92378 707.629 4.56893 707.767V707.731Z" fill="#E5AB8A"/>
<path d="M38 726.794C38.8271 725.337 40.5193 725.337 41.87 724.82C55.6955 719.881 69.5437 715.015 83.392 710.127C89.4625 707.985 95.2749 705.421 100.215 701.312C100.265 702.268 100.234 703.225 100.124 704.175C99.271 708.905 99.4206 713.751 100.564 718.424C95.2521 720.558 89.9405 722.664 84.6971 724.834C83.4679 725.344 82.0261 725.563 81.2217 726.794H38Z" fill="#503658"/>
<path d="M81.2188 726.794C82.0231 725.57 83.4952 725.337 84.6942 724.834C90.0058 722.649 95.2719 720.558 100.561 718.424L106.237 726.794H81.2188Z" fill="#E5AB8A"/>
<path d="M-18.9845 462.685C-19.4709 461.827 -19.6496 460.839 -19.493 459.874C-19.1591 453.864 -21.0562 448.43 -24.0459 443.243C-25.979 439.705 -28.3621 436.412 -31.1406 433.438C-26.9981 430.448 -22.3421 428.177 -17.3835 426.729C-5.50055 423.29 4.71307 426.933 9.79709 435.376C10.4648 436.476 11.1023 437 12.4985 436.461C17.8633 434.385 23.2584 432.396 28.57 430.4C28.57 428.725 27.8112 427.581 27.2649 426.386C23.7065 418.893 19.3235 411.787 14.1906 405.188C11.641 401.896 11.6258 401.896 15.1088 399.222C43.4933 377.407 71.8778 355.593 100.262 333.778C108.731 327.258 117.146 320.665 125.584 314.109C131.358 320.228 136.116 327.076 140.843 333.938C152.996 351.643 162.666 370.809 169.602 390.94C170.475 393.446 171.598 395.922 171.53 398.654C164.753 400.563 157.985 402.493 151.193 404.38C147.286 405.465 147.551 405.341 148.606 408.75C148.682 408.984 148.705 409.224 148.765 409.479C155.724 434.771 157.067 460.42 153.812 486.317C150.829 510.028 144.152 532.858 135.539 555.199C135.266 555.928 135.296 556.962 133.984 557.123C133.354 556.664 132.633 556.183 131.973 555.666C125.736 550.428 121.721 543.777 118.534 536.544C115.203 528.99 113.898 520.962 112.297 512.993C109.262 497.965 104.99 483.286 98.6385 469.22C94.9735 461.127 90.155 453.776 83.4016 447.716C75.2671 440.431 65.7289 436.221 54.5137 435.631C46.1668 435.186 38.169 436.643 30.2925 439.054C17.8405 442.864 6.28372 448.582 -5.28054 454.308C-10.1505 456.617 -14.7452 459.426 -18.9845 462.685V462.685Z" fill="#503658"/>
<path d="M-71.9221 592.954C-72.1952 591.148 -71.2089 589.669 -70.5336 588.132C-63.378 572.004 -55.6381 556.123 -47.921 540.236C-40.4771 524.894 -33.1318 509.502 -27.1751 493.549C-26.8337 492.646 -26.3633 491.786 -25.9535 490.905C-25.1947 496.062 -24.3751 501.212 -22.6299 506.202C-14.7003 528.741 0.627694 544.082 24.6592 550.966C26.6776 551.541 27.5958 551.163 28.4532 549.378C31.4353 543.099 34.5615 536.885 37.6043 530.627C38.0141 529.79 38.6971 528.967 38.295 527.816C37.8624 527.699 37.3919 527.553 36.9063 527.451C28.7048 525.832 21.0328 522.333 14.5442 517.253C4.99079 509.823 -0.927865 500.36 -1.70944 488.399C-2.65795 473.771 3.48823 467.128 13.1023 462.619C22.5413 458.136 33.0333 456.09 43.5459 456.682C48.1009 456.849 52.5728 457.904 56.6898 459.782C60.8068 461.661 64.4827 464.323 67.4939 467.609C72.8056 473.167 76.3264 479.672 78.9746 486.672C83.7811 499.563 87.3224 512.857 89.5524 526.38C91.2066 536.069 93.005 545.706 96.3817 555.023C104.4 577.411 119.601 593.564 141.986 603.48C141.227 606.576 139.467 609.308 138.101 612.134C129.238 630.615 120.223 649.031 111.786 667.694C111.558 659.914 110.731 652.221 108.212 644.762C103.294 630.193 94.5909 618.093 82.966 607.756C66.7578 593.348 47.78 583.433 27.1859 576.229C12.7306 571.13 -2.11936 567.946 -17.6218 568.216C-38.2842 568.558 -55.7519 575.69 -69.4711 590.798C-70.2527 591.519 -70.7459 592.583 -71.9221 592.954Z" fill="#503658"/>
<path d="M141.932 603.452C119.567 593.506 104.366 577.354 96.3277 554.995C92.9889 545.678 91.1905 536.056 89.4984 526.352C87.2684 512.829 83.7269 499.535 78.9205 486.644C76.2722 479.644 72.7211 473.139 67.4398 467.581C64.4286 464.295 60.7526 461.632 56.6356 459.754C52.5187 457.876 48.0467 456.821 43.4917 456.654C32.9791 456.062 22.4873 458.108 13.0484 462.591C3.43426 467.1 -2.71211 473.743 -1.7636 488.371C-1.00479 500.332 4.93663 509.795 14.49 517.225C20.9787 522.305 28.6507 525.804 36.8521 527.423C37.3378 527.525 37.8083 527.671 38.2408 527.788C38.643 528.938 37.9601 529.762 37.5503 530.599C34.5151 536.857 31.3812 543.071 28.3991 549.35C27.5568 551.135 26.6386 551.535 24.605 550.938C0.573532 544.032 -14.7545 528.713 -22.684 506.174C-24.4293 501.213 -25.2563 496.063 -26.0075 490.877C-26.348 486.577 -26.2438 482.256 -25.6965 477.976C-25.006 472.25 -23.0861 467.049 -19.0341 462.678C-14.8116 459.403 -10.2321 456.577 -5.37554 454.25C6.18871 448.524 17.7453 442.806 30.1973 438.996C38.0738 436.585 46.0869 435.128 54.4187 435.572C65.6339 436.162 75.172 440.373 83.3064 447.657C90.0598 453.718 94.8783 461.068 98.5433 469.161C104.925 483.228 109.205 497.906 112.202 512.934C113.803 520.904 115.108 528.96 118.439 536.485C121.626 543.719 125.64 550.37 131.878 555.607C132.538 556.161 133.259 556.642 133.889 557.064C135.201 556.904 135.171 555.848 135.444 555.141C144.057 532.799 150.734 509.977 153.716 486.258C156.972 460.362 155.629 434.713 148.67 409.421C148.61 409.18 148.587 408.94 148.511 408.692C147.456 405.283 147.191 405.407 151.098 404.321C157.89 402.435 164.658 400.504 171.435 398.596C172.778 399.863 173.074 401.59 173.506 403.207C180.21 428.268 182.397 454.246 179.971 480.015C177.027 512.563 167.83 543.566 155.257 573.76C151.607 582.502 147.631 591.192 143.776 599.89C143.336 601.143 142.941 602.469 141.932 603.452Z" fill="#E5AB8A"/>
<path d="M125.586 314.131C117.148 320.687 108.733 327.243 100.265 333.799C71.8903 355.624 43.5058 377.438 15.1112 399.244C11.6282 401.917 11.6434 401.917 14.193 405.21C19.3326 411.814 23.7207 418.928 27.2825 426.43C27.844 427.624 28.6104 428.768 28.5876 430.443C23.276 432.439 17.8809 434.428 12.5161 436.504C11.1199 437.043 10.4824 436.504 9.81469 435.419C4.73067 426.976 -5.48295 423.334 -17.3659 426.772C-22.3245 428.22 -26.9805 430.491 -31.123 433.481C-33.2553 431.369 -35.3801 429.249 -37.5275 427.151C-37.8242 426.944 -38.0645 426.673 -38.2283 426.358C-38.3921 426.044 -38.4746 425.696 -38.4684 425.344C-26.4388 412.261 -14.4091 399.176 -2.37942 386.088C28.9847 351.865 60.3488 317.627 91.7129 283.375C92.1303 282.924 92.5249 282.443 92.9271 281.977C93.6836 282.037 94.3945 282.349 94.9379 282.858C105.948 292.517 116.571 302.599 125.586 314.131Z" fill="#E5AB8A"/>
<path d="M4.5682 707.767C-4.9245 707.628 -15.6463 707.235 -26.1862 704.998C-35.9141 702.922 -45.0654 699.535 -52.7445 693.241C-63.8914 684.106 -69.0438 672.116 -69.5522 658.333C-70.195 643.677 -66.0538 629.194 -57.7071 616.906C-48.9429 603.867 -36.2557 597.143 -20.0703 596.509C-9.84157 596.116 0.0685125 597.813 9.74333 600.785C29.7607 606.919 48.4427 615.566 64.6357 628.605C71.1103 633.68 76.5779 639.834 80.7755 646.773C87.1495 657.561 88.6823 668.852 84.5696 680.734C83.442 684.214 81.5966 687.441 79.1432 690.223C76.6899 693.005 73.6786 695.285 70.2887 696.927C62.5641 700.773 54.2171 702.646 45.7716 704.161C32.175 706.529 18.3866 707.735 4.5682 707.767Z" fill="#503658"/>
<path d="M962.216 417.516C963.468 418.055 964.227 418.733 964.227 420.19L964.272 157.655C964.256 160.801 963.176 162.55 960.341 164.123C949.65 170.074 939.095 176.252 928.472 182.4C906.853 194.944 885.273 207.561 864.087 220.775C862.531 221.744 860.672 222.436 859.784 224.206C882.179 251.251 904.574 278.294 926.969 305.334C938.65 319.505 950.373 333.632 962.14 347.716C963.559 349.257 964.306 351.262 964.227 353.318C964.082 357.404 964.189 361.498 964.189 365.92C962.443 365.439 961.465 364.463 960.395 363.734C929.491 342.09 898.577 320.452 867.653 298.822C863.624 296.003 864.261 295.5 861.757 300.228C859.253 304.955 857.371 309.982 855.026 314.797C851.824 321.353 848.425 327.858 845.299 334.465C843.318 338.661 841.239 342.813 839.311 347.024C838.591 348.597 837.794 348.939 836.132 348.16C831.223 345.895 826.328 343.687 821.358 341.604C819.62 340.868 819.552 340.023 820.197 338.523C823.61 330.806 825.4 322.517 825.463 314.134C825.396 312.19 825.694 310.251 826.344 308.408C827.762 304.875 827.747 301.291 827.482 297.649C826.89 289.687 827.034 281.652 825.372 273.77C824.264 268.416 823.035 263.098 820.06 258.334C819.274 258.929 818.623 259.673 818.148 260.519C812.945 268.122 808.766 276.326 805.711 284.937C804.361 288.835 803.26 292.826 800.096 295.901C799.337 296.636 798.996 297.787 798.526 298.778C786.445 323.72 774.368 348.663 762.292 373.605C761.678 374.916 760.79 376.155 760.919 377.699C763.59 375.47 766.208 373.226 768.947 371.099C801.637 345.734 846.611 357.892 864.147 390.112C869.941 400.917 873.512 412.692 874.664 424.794C876.152 439.02 877.297 453.284 878.572 467.532C878.697 469.351 879.114 471.14 879.809 472.835C881.835 477.527 883.671 482.313 885.948 486.895C889.874 494.974 896.135 501.8 903.985 506.563C904.812 507.044 905.571 507.772 906.853 507.772C908.082 505.594 908.644 503.11 909.403 500.728C911.748 493.435 914.62 486.308 918 479.399C928.168 458.66 938.184 437.899 948.261 417.138C948.633 416.365 949.005 415.564 949.392 414.836C950.636 412.403 950.651 412.381 953.285 413.539C956.267 414.843 959.18 416.242 962.216 417.516Z" fill="#503658"/>
<path d="M908.594 654.264C908.905 660.9 908.7 667.529 909.307 674.165C910.132 682.941 911.56 691.655 913.579 700.251C913.902 701.293 914.053 702.377 914.027 703.464C906.249 705.511 898.471 707.587 890.678 709.597C888.887 710.064 888.303 710.734 888.933 712.657C890.519 717.516 892.416 722.251 894.374 726.978H699.489C699.709 721.879 698.199 716.933 697.607 711.899C696.575 703.158 695.611 694.365 694.822 685.58C694.063 677.13 694.42 668.658 693.691 660.215C693.502 657.95 693.266 655.626 694.01 653.375C694.814 655.793 695.581 658.234 696.438 660.66C704.907 684.458 721.175 700.878 746.3 708.738C758.44 712.526 771.029 713.465 783.732 712.868C793.823 712.351 803.851 711.009 813.705 708.854C834.906 704.323 855.189 697.418 874.038 687.001C888.349 679.068 900.983 669.386 908.328 654.606C908.381 654.417 908.541 654.351 908.594 654.264Z" fill="#503658"/>
<path d="M894.373 726.979C892.416 722.252 890.519 717.509 888.933 712.658C888.303 710.735 888.887 710.065 890.678 709.598C898.471 707.588 906.249 705.512 914.026 703.465C915.104 706.284 916.159 709.103 917.251 711.915C919.427 717.2 922.179 722.25 925.462 726.979H894.373Z" fill="#E5AB8A"/>
<path d="M924.153 545.818C921.937 555.653 919.653 565.487 917.529 575.321C915.457 584.937 913.674 594.603 912.429 604.35C912.167 605.779 911.817 607.192 911.382 608.582C907.08 594.013 898.346 582.205 886.501 572.385C877.729 565.227 867.98 559.254 857.522 554.633C839.341 546.419 819.951 540.937 800.035 538.381C785.025 536.421 770.062 536.196 755.181 539.233C730.209 544.332 711.929 557.765 700.919 580.027C700.274 581.338 699.561 582.613 698.878 583.902C698.749 579.145 699.841 574.505 700.555 569.85C705.04 540.73 711.278 511.883 719.237 483.455C722.641 471.164 726.349 458.955 730.361 446.828C730.778 445.561 731.37 444.352 731.878 443.121C731.878 443.601 731.977 444.089 731.969 444.577C731.81 452.117 732.318 459.576 734.398 466.912C741.568 492.168 761.897 508.776 789.032 511.45C792.515 511.792 792.492 511.785 793.585 508.354C795.891 501.307 798.213 494.266 800.551 487.229C800.96 485.998 801.355 484.752 801.727 483.586C800.844 482.979 799.777 482.666 798.691 482.698C794.292 482.248 789.984 481.183 785.906 479.536C765.774 471.822 757.139 453.639 760.038 435.435C761.442 426.577 764.887 418.404 768.832 410.398C770.723 406.685 773.158 403.25 776.064 400.2C782.688 393.09 790.792 388.304 800.755 387.241C818.504 385.339 834.439 394.139 842.095 409.619C846.777 419.089 848.538 429.192 849.684 439.486C850.397 446.115 850.844 452.773 851.801 459.365C852.992 467.524 855.344 475.471 857.294 483.492C865.596 517.999 889.339 537.39 924.153 545.818Z" fill="#503658"/>
<path d="M698.838 583.881C699.521 582.591 700.234 581.316 700.879 580.005C711.912 557.765 730.169 544.362 755.141 539.212C770.022 536.152 784.985 536.4 799.995 538.359C819.924 540.912 839.326 546.394 857.52 554.611C867.992 559.237 877.755 565.217 886.537 572.386C898.382 582.205 907.116 593.984 911.418 608.583C914.59 621.425 914.704 634.239 911.039 647.009C910.341 649.456 909.445 651.853 908.641 654.293C908.542 654.381 908.421 654.446 908.368 654.548C901.022 669.329 888.388 679.01 874.077 686.943C855.228 697.389 834.945 704.295 813.744 708.796C803.89 710.951 793.863 712.294 783.771 712.81C771.069 713.408 758.488 712.468 746.339 708.68C721.215 700.856 704.946 684.437 696.478 660.602C695.62 658.198 694.854 655.757 694.05 653.317C691.883 643.632 690.865 633.742 691.014 623.837C691.245 610.896 693.688 598.079 698.246 585.898C698.489 585.301 698.64 584.573 698.838 583.881ZM790.479 680.445C806.233 680.256 821.909 678.288 837.184 674.581C847.997 671.929 858.385 668.272 867.787 662.343C884.48 651.809 889.792 635.572 886.21 618.067C884.139 607.993 878.175 600.162 870.116 593.686C862.68 587.705 854.181 583.429 845.25 580.02C827.858 573.398 809.73 569.821 791.139 568.474C780.167 567.694 769.134 567.862 758.389 570.506C737.977 575.511 724.872 587.559 719.804 607.359C717.474 616.32 716.989 625.631 718.377 634.771C721.298 654.038 732.036 667.486 750.945 674.719C763.238 679.418 776.145 680.518 790.479 680.445V680.445Z" fill="#E5AB8A"/>
<path d="M924.155 545.82C889.341 537.392 865.598 518.001 857.213 483.464C855.263 475.451 852.911 467.497 851.719 459.338C850.763 452.745 850.315 446.087 849.602 439.458C848.494 429.18 846.734 419.062 842.014 409.592C834.358 394.112 818.423 385.312 800.674 387.213C790.711 388.277 782.607 393.041 775.982 400.173C773.077 403.223 770.641 406.657 768.751 410.371C764.805 418.384 761.36 426.55 759.956 435.408C757.058 453.62 765.693 471.795 785.824 479.509C789.903 481.156 794.21 482.221 798.61 482.67C799.696 482.639 800.762 482.951 801.645 483.559C801.274 484.717 800.887 485.963 800.469 487.201C798.147 494.248 795.825 501.29 793.503 508.327C792.388 511.758 792.411 511.765 788.95 511.423C761.815 508.749 741.487 492.14 734.316 466.885C732.237 459.549 731.729 452.09 731.888 444.55C731.888 444.069 731.827 443.581 731.797 443.093C733.724 420.511 742.572 400.588 756.709 382.631C757.847 381.174 759.038 379.798 760.207 378.384C760.386 378.329 760.546 378.227 760.67 378.091C760.794 377.956 760.878 377.79 760.912 377.612L760.859 377.678C763.53 375.493 766.171 373.205 768.888 371.078C801.577 345.713 846.552 357.871 864.088 390.091C869.882 400.896 873.452 412.671 874.605 424.773C876.123 438.999 877.238 453.263 878.513 467.511C878.637 469.33 879.054 471.119 879.75 472.814C881.776 477.506 883.62 482.284 885.888 486.874C889.815 494.953 896.075 501.779 903.925 506.542C904.752 507.052 905.511 507.766 906.794 507.751C908.023 505.566 908.569 503.089 909.343 500.707C911.688 493.414 914.561 486.287 917.941 479.378C928.109 458.66 938.125 437.856 948.202 417.117C948.581 416.344 948.961 415.572 949.333 414.815C950.577 412.382 950.592 412.36 953.225 413.518C956.207 414.822 959.152 416.221 962.156 417.495C963.431 418.034 964.19 418.69 964.167 420.169C963.993 429.136 964.433 438.111 963.917 447.078C959.516 455.936 955.403 464.94 950.66 473.63C938.519 495.928 930.931 519.771 924.618 544.036C924.519 544.662 924.33 545.238 924.155 545.82Z" fill="#E5AB8A"/>
<path d="M859.798 224.141C882.193 251.186 904.588 278.229 926.983 305.269C938.694 319.411 950.417 333.538 962.153 347.65C963.572 349.192 964.319 351.197 964.24 353.252C964.096 357.339 964.202 361.433 964.202 365.855C962.449 365.396 961.47 364.441 960.408 363.669C929.494 342.034 898.58 320.396 867.667 298.756C863.637 295.937 864.282 295.384 861.771 300.162C859.259 304.941 857.385 309.953 855.04 314.732C851.838 321.288 848.438 327.785 845.312 334.4C843.332 338.596 841.252 342.748 839.325 346.958C838.566 348.532 837.807 348.874 836.146 348.095C831.266 345.822 826.342 343.615 821.372 341.539C819.634 340.81 819.566 339.958 820.211 338.457C823.624 330.741 825.414 322.452 825.477 314.069C825.41 312.125 825.708 310.185 826.357 308.343C827.776 304.81 827.761 301.197 827.495 297.584C826.911 289.622 827.048 281.558 825.386 273.705C824.263 268.351 823.033 263.033 820.074 258.269C825.78 249.906 833.088 242.971 841.055 236.641C846.002 232.729 851.156 229.065 856.497 225.663C857.499 225.051 858.462 224.162 859.798 224.141Z" fill="#E5AB8A"/>
<path d="M790.477 680.445C776.143 680.518 763.235 679.418 750.943 674.719C732.018 667.486 721.296 654.038 718.374 634.771C716.987 625.631 717.471 616.32 719.801 607.359C724.87 587.559 738.012 575.511 758.386 570.506C769.169 567.862 780.164 567.694 791.137 568.474C809.728 569.8 827.855 573.398 845.247 580.02C854.209 583.429 862.7 587.705 870.114 593.686C878.172 600.162 884.136 607.993 886.208 618.067C889.805 635.55 884.455 651.809 867.784 662.343C858.382 668.272 847.994 671.929 837.181 674.581C821.907 678.288 806.23 680.256 790.477 680.445V680.445Z" fill="#503658"/>
<path d="M548.928 58.2474C549.846 59.0269 550.703 59.952 551.963 60.3308C562.814 48.0247 573.632 35.7065 584.417 23.3762C590.614 16.349 596.793 9.30725 602.955 2.25093C604.032 1.04898 605.019 0.0655585 606.976 0.0655585C618.222 0.145689 629.468 0.145689 640.706 0.145689C641.083 0.187463 641.455 0.270558 641.813 0.393362C641.882 1.85028 640.91 2.89197 640.296 4.03565C633.78 16.0698 627.234 28.099 620.658 40.1234C619.057 43.1028 618.89 42.8041 622.092 44.3339C637.156 51.4844 653.142 56.6848 669.631 59.799C670.997 60.0613 672.355 60.3308 673.721 60.5712L673.725 60.5719C679.101 61.5182 679.109 61.5195 678.274 66.53C677.675 70.1213 677.098 73.7126 676.438 77.2893C675.998 79.8024 675.937 79.8389 673.403 79.5693C668.008 79.0011 662.62 78.3383 657.225 77.7701C642.997 76.284 628.747 75.7522 614.504 77.3767C606.832 78.2436 599.343 79.9991 592.62 83.9328C591.664 84.501 590.601 84.9526 590.01 85.9579C604.263 93.2938 619.22 99.2925 634.673 103.871C655.547 110.08 677.144 113.775 698.967 114.87C710.175 115.431 721.443 115.198 732.666 114.936C739.945 114.711 747.207 114.118 754.421 113.158C746.385 111.6 738.296 110.23 730.708 107.054C721.549 103.23 713.24 98.2688 706.866 90.7657C696.243 78.229 694.323 64.1552 699.278 49.0033C702.01 40.6697 706.775 33.407 712.519 26.7125C720.676 17.1989 730.177 9.05471 740.322 1.56618C741.266 0.755461 742.434 0.234867 743.676 0.061696L496.033 0.0297148C497.561 0.184721 498.624 1.02801 499.575 2.44762C502.787 7.24086 506.108 11.9637 509.538 16.6161C520.792 32.0278 534.027 46.0153 548.928 58.2474Z" fill="#503658"/>
<path d="M884.549 0.808588C884.666 0.382254 884.87 0.174018 885.114 0.0799616L777.092 0.0660114C777.38 0.128971 777.657 0.231867 777.913 0.371509C777.633 1.50062 776.586 2.06882 775.827 2.75357C768.595 8.99644 761.318 15.1956 754.087 21.4385C749.058 25.692 744.518 30.4491 740.542 35.6288C735.564 42.2724 732.286 49.5351 732.4 57.8759C732.537 67.7465 736.832 75.6867 745.103 81.5143C752.827 86.9486 761.667 89.0539 771.039 89.5273C779.139 89.8582 787.235 88.7772 794.934 86.3367C802.301 84.167 809.405 81.2488 816.127 77.6317C822.251 74.2807 827.244 69.7425 831.675 64.5194C838.186 56.8488 839.567 48.2311 837.192 38.8486C835.733 33.1808 833.023 27.8796 829.247 23.3033C828.556 22.451 827.835 21.5915 827.206 20.863C827.244 19.9524 827.896 19.7485 828.435 19.4789C836.023 15.6181 843.588 11.7136 850.918 7.42298C852.671 6.39585 853.734 6.59982 855.069 8.05673C865.51 19.3478 871.277 32.3726 870.109 47.5901C868.887 63.4705 861.307 76.437 848.862 86.8685C846.897 88.5221 844.415 89.5638 842.898 91.7491C844.529 91.9677 845.797 91.0644 847.14 90.4379C854.933 86.7665 862.589 82.7308 870.109 78.5204C901.713 60.8626 931.223 40.3929 959.383 18.0584C961.386 16.4923 963.822 15.2247 965.081 12.85C958.647 15.3632 952.121 17.5267 945.2 18.4882C935.326 19.9684 925.236 19.4045 915.607 16.8346C904.204 13.6297 893.625 8.17088 884.549 0.808588Z" fill="#503658"/>
<path d="M754.499 113.201C746.463 111.643 738.382 110.288 730.786 107.097C721.627 103.273 713.334 98.3118 706.944 90.8087C696.321 78.272 694.401 64.1982 699.356 49.0463C702.088 40.7127 706.853 33.45 712.598 26.7555C720.755 17.2418 730.255 9.09768 740.4 1.60915C741.532 0.636766 742.987 0.0817497 744.506 0.0429688C755.364 0.101245 766.23 0.0793929 777.134 0.101247C777.435 0.163348 777.724 0.268961 777.992 0.414478C777.711 1.54359 776.694 2.11179 775.905 2.79653C768.674 9.03941 761.397 15.2386 754.165 21.4815C749.137 25.735 744.596 30.4921 740.62 35.6718C735.643 42.3153 732.365 49.578 732.478 57.9189C732.615 67.7895 736.91 75.7078 745.181 81.5573C752.875 86.9916 761.746 89.0968 771.117 89.5703C779.217 89.9012 787.313 88.8202 795.012 86.3797C802.354 84.215 809.436 81.3066 816.137 77.7038C822.261 74.3383 827.254 69.8 831.685 64.5915C838.196 56.9209 839.577 48.3032 837.202 38.9207C835.743 33.2529 833.033 27.9517 829.257 23.3754C828.566 22.5231 827.846 21.6854 827.216 20.9351C827.216 20.0245 827.906 19.8206 828.445 19.551C836.033 15.6902 843.621 11.7857 850.929 7.49508C852.681 6.46796 853.744 6.6865 855.079 8.12884C865.52 19.4199 871.287 32.4447 870.119 47.6622C868.905 63.5426 861.324 76.5091 848.872 86.9406C846.907 88.5942 844.433 89.6723 842.908 91.8213H842.999C842.674 91.7586 842.336 91.8037 842.041 91.9492C841.746 92.0948 841.511 92.3322 841.375 92.6226C835.305 96.0973 829.409 99.8051 822.83 102.377C802.843 110.193 782.272 115.008 760.494 113.682C758.521 113.493 756.51 113.34 754.499 113.201Z" fill="#E5AB8A"/>
<path d="M551.964 60.3307C562.81 48.0198 573.653 35.7064 584.494 23.3906C590.686 16.3537 596.865 9.31197 603.032 2.26537C604.109 1.02699 605.096 0.0290039 607.054 0.0799959C618.299 0.174695 629.545 0.138273 640.783 0.160127C641.161 0.2019 641.532 0.284995 641.891 0.407799C641.936 1.86471 640.965 2.93554 640.373 4.05008C633.857 16.089 627.311 28.1183 620.735 40.1378C619.104 43.1172 618.967 42.8186 622.169 44.3483C637.228 51.487 653.206 56.6775 669.686 59.7843C671.052 60.0466 672.41 60.3161 673.776 60.5565C679.141 61.5035 679.148 61.5035 678.329 66.5153C677.729 70.1066 677.152 73.6979 676.492 77.2746C676.022 79.7878 675.961 79.8242 673.457 79.5547C668.062 78.9865 662.674 78.3236 657.279 77.7554C643.052 76.2984 628.801 75.7375 614.558 77.362C606.887 78.2434 599.382 79.999 592.674 83.9181C591.718 84.479 590.656 84.9379 590.064 85.9432C588.971 86.1108 588.106 85.579 587.234 85.0909C575.517 78.5785 564.211 71.5052 553.77 63.2372C552.829 62.4796 551.471 61.8969 551.964 60.3307Z" fill="#E5AB8A"/>
<path d="M965.126 12.8713C958.692 15.3845 952.166 17.548 945.245 18.5095C935.371 19.9897 925.281 19.4258 915.652 16.8559C904.249 13.651 893.669 8.19218 884.594 0.829888C884.905 -0.328358 885.823 0.101431 886.468 0.101431C919.011 0.101431 951.556 0.101431 984.104 0.101431C984.734 0.101431 985.356 0.196129 985.986 0.247121C979.779 5.58671 972.585 9.41839 965.126 12.8713Z" fill="#E5AB8A"/>
</g>
<defs>
<clipPath id="clip0_1253_8911">
<rect width="918" height="727" rx="8" fill="white"/>
</clipPath>
</defs>
</svg>
