<svg width="1926" height="1926" viewBox="0 0 1926 1926" fill="none" xmlns="http://www.w3.org/2000/svg">
<g clip-path="url(#clip0_1132_14152)">
<rect x="1926" y="1926" width="1926" height="1926" rx="8" transform="rotate(-180 1926 1926)" fill="#0E0E0E"/>
<path opacity="0.7" fill-rule="evenodd" clip-rule="evenodd" d="M266.818 521.772L521.582 267.008C522.859 266.197 524.137 265.39 525.418 264.586L264.397 525.608C265.2 524.327 266.007 523.048 266.818 521.772ZM225.214 595.376L595.206 225.384C596.142 224.917 597.079 224.451 598.017 223.987L223.818 598.186C224.282 597.249 224.747 596.312 225.214 595.376ZM198.895 653.695L653.545 199.045C654.334 198.725 655.124 198.407 655.915 198.089L197.94 656.064C198.257 655.274 198.576 654.484 198.895 653.695ZM180.331 704.26L704.13 180.461C704.832 180.229 705.534 179.998 706.237 179.767L179.638 706.366C179.868 705.664 180.099 704.962 180.331 704.26ZM166.737 749.854L749.743 166.847C750.385 166.676 751.027 166.505 751.669 166.335L166.226 751.779C166.395 751.137 166.566 750.495 166.737 749.854ZM156.71 791.88L791.789 156.801C792.386 156.675 792.982 156.55 793.579 156.425L156.335 793.669C156.46 793.073 156.585 792.476 156.71 791.88ZM149.424 831.166L831.095 149.495C831.656 149.405 832.217 149.315 832.778 149.226L149.156 832.848C149.245 832.287 149.334 831.727 149.424 831.166ZM144.34 868.25L868.199 144.392C868.73 144.331 869.262 144.271 869.794 144.211L144.16 869.845C144.219 869.313 144.279 868.782 144.34 868.25ZM141.084 903.506L903.474 141.116C903.981 141.08 904.488 141.045 904.995 141.009L140.978 905.027C141.013 904.52 141.048 904.013 141.084 903.506ZM139.383 937.207L937.194 139.397C937.679 139.382 938.165 139.367 938.651 139.353L139.341 938.664C139.354 938.178 139.369 937.693 139.383 937.207ZM139.032 969.559L969.564 139.026C970.032 139.03 970.499 139.034 970.966 139.038L139.045 970.96C139.04 970.493 139.036 970.026 139.032 969.559ZM139.874 1000.72L1000.74 139.849C1001.19 139.869 1001.64 139.89 1002.09 139.911L139.936 1002.07C139.915 1001.62 139.894 1001.17 139.874 1000.72ZM141.795 1030.8L1030.84 141.751C1031.27 141.787 1031.71 141.822 1032.15 141.859L141.904 1032.1C141.867 1031.67 141.831 1031.23 141.795 1030.8ZM144.704 1059.89L1059.95 144.64C1060.37 144.69 1060.79 144.739 1061.22 144.789L144.854 1061.15C144.803 1060.73 144.753 1060.31 144.704 1059.89ZM148.521 1088.07L1088.15 148.438C1088.56 148.5 1088.97 148.563 1089.38 148.625L148.709 1089.3C148.646 1088.89 148.583 1088.48 148.521 1088.07ZM153.18 1115.41L1115.51 153.078C1115.91 153.152 1116.31 153.227 1116.7 153.301L153.405 1116.6C153.33 1116.2 153.255 1115.81 153.18 1115.41ZM158.626 1141.96L1142.09 158.504C1142.47 158.589 1142.86 158.675 1143.24 158.761L158.884 1143.12C158.797 1142.74 158.711 1142.35 158.626 1141.96ZM164.809 1167.78L1167.92 164.668C1168.3 164.763 1168.67 164.86 1169.05 164.956L165.098 1168.91C165.002 1168.53 164.905 1168.16 164.809 1167.78ZM171.687 1192.9L1193.06 171.526C1193.43 171.632 1193.79 171.738 1194.16 171.845L172.007 1194C171.9 1193.63 171.794 1193.27 171.687 1192.9ZM179.224 1217.37L1217.55 179.044C1217.9 179.159 1218.26 179.275 1218.61 179.391L179.572 1218.43C179.456 1218.08 179.34 1217.72 179.224 1217.37ZM187.388 1241.2L1241.4 187.188C1241.75 187.313 1242.1 187.437 1242.44 187.562L187.763 1242.24C187.638 1241.9 187.513 1241.55 187.388 1241.2ZM196.151 1264.44L1264.66 195.931C1265 196.064 1265.34 196.197 1265.67 196.331L196.551 1265.45C196.417 1265.12 196.284 1264.78 196.151 1264.44ZM205.487 1287.1L1287.34 205.248C1287.67 205.389 1288 205.531 1288.33 205.673L205.912 1288.09C205.77 1287.76 205.629 1287.43 205.487 1287.1ZM215.376 1309.21L1309.47 215.117C1309.79 215.267 1310.12 215.416 1310.44 215.566L215.825 1310.18C215.675 1309.86 215.526 1309.54 215.376 1309.21ZM225.798 1330.79L1331.07 225.52C1331.38 225.677 1331.7 225.834 1332.01 225.992L226.271 1331.73C226.113 1331.42 225.955 1331.11 225.798 1330.79ZM236.737 1351.85L1352.15 236.44C1352.46 236.604 1352.76 236.769 1353.07 236.934L237.232 1352.77C237.067 1352.47 236.902 1352.16 236.737 1351.85ZM248.178 1372.41L1372.73 247.861C1373.03 248.033 1373.33 248.205 1373.63 248.377L248.695 1373.31C248.522 1373.01 248.35 1372.71 248.178 1372.41ZM260.108 1392.48L1392.82 259.772C1393.11 259.951 1393.4 260.13 1393.7 260.309L260.646 1393.36C260.467 1393.07 260.287 1392.77 260.108 1392.48ZM272.516 1412.07L1412.43 272.16C1412.72 272.346 1413 272.532 1413.29 272.719L273.075 1412.93C272.889 1412.64 272.702 1412.36 272.516 1412.07ZM285.393 1431.2L1431.57 285.018C1431.85 285.21 1432.13 285.403 1432.41 285.596L285.972 1432.03C285.779 1431.75 285.586 1431.48 285.393 1431.2ZM298.73 1449.86L1450.26 298.335C1450.53 298.535 1450.8 298.734 1451.07 298.934L299.329 1450.68C299.129 1450.4 298.929 1450.13 298.73 1449.86ZM312.52 1468.07L1468.48 312.106C1468.75 312.312 1469.01 312.519 1469.28 312.725L313.14 1468.86C312.933 1468.6 312.726 1468.34 312.52 1468.07ZM326.758 1485.83L1486.27 326.325C1486.52 326.538 1486.78 326.751 1487.04 326.964L327.398 1486.61C327.184 1486.35 326.971 1486.09 326.758 1485.83ZM341.44 1503.15L1503.6 340.988C1503.85 341.207 1504.11 341.426 1504.36 341.646L342.099 1503.91C341.879 1503.65 341.66 1503.4 341.44 1503.15ZM356.562 1520.03L1520.5 356.09C1520.75 356.316 1520.99 356.542 1521.24 356.768L357.241 1520.76C357.015 1520.52 356.788 1520.27 356.562 1520.03ZM372.123 1536.47L1536.96 371.631C1537.2 371.864 1537.44 372.096 1537.68 372.328L372.82 1537.18C372.588 1536.95 372.355 1536.71 372.123 1536.47ZM388.837 1553.17C388.598 1552.94 388.359 1552.7 388.12 1552.47L1552.98 387.609C1553.21 387.848 1553.45 388.087 1553.68 388.325L388.837 1553.17ZM405.29 1568.71C405.045 1568.49 404.799 1568.26 404.554 1568.04L1568.57 404.024C1568.79 404.269 1569.02 404.514 1569.24 404.76L405.29 1568.71ZM422.182 1583.82C421.93 1583.6 421.678 1583.38 421.426 1583.16L1583.71 420.877C1583.93 421.128 1584.15 421.38 1584.37 421.632L422.182 1583.82ZM439.514 1598.49C439.255 1598.28 438.997 1598.06 438.739 1597.85L1598.42 438.17C1598.63 438.428 1598.85 438.686 1599.06 438.944L439.514 1598.49ZM457.289 1612.72C457.024 1612.51 456.759 1612.3 456.494 1612.1L1612.68 455.906C1612.89 456.171 1613.1 456.435 1613.3 456.7L457.289 1612.72ZM475.512 1626.49C475.241 1626.29 474.969 1626.09 474.697 1625.89L1626.5 474.09C1626.7 474.361 1626.9 474.632 1627.1 474.904L475.512 1626.49ZM494.189 1639.82C493.91 1639.62 493.632 1639.43 493.354 1639.24L1639.86 492.727C1640.06 493.005 1640.25 493.283 1640.44 493.561L494.189 1639.82ZM513.326 1652.68C513.04 1652.49 512.755 1652.31 512.47 1652.12L1652.77 511.824C1652.95 512.109 1653.14 512.394 1653.33 512.679L513.326 1652.68ZM532.931 1665.07C532.639 1664.89 532.347 1664.72 532.055 1664.54L1665.2 531.389C1665.38 531.681 1665.56 531.972 1665.74 532.264L532.931 1665.07ZM553.014 1676.99C552.715 1676.82 552.416 1676.65 552.116 1676.47L1677.16 551.431C1677.33 551.73 1677.5 552.029 1677.68 552.328L553.014 1676.99ZM573.586 1688.42C573.28 1688.25 572.973 1688.09 572.667 1687.92L1688.63 571.962C1688.79 572.268 1688.96 572.575 1689.12 572.881L573.586 1688.42ZM594.66 1699.34C594.346 1699.19 594.032 1699.03 593.718 1698.87L1699.6 592.994C1699.75 593.308 1699.91 593.622 1700.07 593.936L594.66 1699.34ZM616.251 1709.75C615.929 1709.6 615.607 1709.45 615.286 1709.3L1710.05 614.542C1710.2 614.864 1710.35 615.185 1710.5 615.507L616.251 1709.75ZM638.375 1719.63C638.045 1719.49 637.715 1719.35 637.385 1719.2L1719.97 636.622C1720.11 636.952 1720.25 637.281 1720.39 637.611L638.375 1719.63ZM661.05 1728.95C660.712 1728.82 660.374 1728.69 660.036 1728.55L1729.34 659.254C1729.47 659.592 1729.6 659.929 1729.74 660.267L661.05 1728.95ZM684.3 1737.7C683.953 1737.58 683.607 1737.46 683.26 1737.33L1738.13 682.458C1738.26 682.804 1738.38 683.151 1738.51 683.497L684.3 1737.7ZM708.148 1745.86C707.792 1745.74 707.437 1745.63 707.081 1745.51L1746.33 706.26C1746.45 706.615 1746.56 706.97 1746.68 707.326L708.148 1745.86ZM732.622 1753.38C732.257 1753.28 731.892 1753.17 731.527 1753.06L1753.9 730.686C1754.01 731.051 1754.12 731.415 1754.22 731.78L732.622 1753.38ZM757.755 1760.25C757.38 1760.15 757.004 1760.06 756.63 1759.96L1760.82 755.769C1760.92 756.144 1761.01 756.518 1761.11 756.893L757.755 1760.25ZM783.582 1766.42C783.196 1766.34 782.811 1766.25 782.425 1766.16L1767.05 781.545C1767.13 781.93 1767.22 782.316 1767.3 782.701L783.582 1766.42ZM810.146 1771.86C809.749 1771.78 809.352 1771.71 808.956 1771.63L1772.53 808.056C1772.61 808.453 1772.68 808.849 1772.76 809.246L810.146 1771.86ZM837.496 1776.51C837.087 1776.45 836.678 1776.38 836.27 1776.32L1777.24 835.35C1777.3 835.759 1777.37 836.167 1777.43 836.576L837.496 1776.51ZM865.687 1780.32C865.265 1780.27 864.844 1780.22 864.422 1780.17L1781.11 863.484C1781.16 863.905 1781.21 864.326 1781.26 864.747L865.687 1780.32ZM894.786 1783.22C894.35 1783.18 893.915 1783.15 893.479 1783.11L1784.07 892.522C1784.11 892.957 1784.14 893.392 1784.18 893.827L894.786 1783.22ZM924.87 1785.13C924.419 1785.11 923.969 1785.09 923.519 1785.07L1786.05 922.541C1786.07 922.992 1786.09 923.442 1786.11 923.892L924.87 1785.13ZM956.033 1785.97C955.566 1785.97 955.098 1785.96 954.631 1785.96L1786.96 953.635C1786.96 954.102 1786.96 954.569 1786.97 955.036L956.033 1785.97ZM988.387 1785.62C987.902 1785.63 987.416 1785.65 986.93 1785.66L1786.68 985.915C1786.66 986.4 1786.65 986.886 1786.63 987.371L988.387 1785.62ZM1022.09 1783.92C1021.58 1783.95 1021.08 1783.99 1020.57 1784.02L1785.06 1019.53C1785.02 1020.04 1784.99 1020.55 1784.95 1021.05L1022.09 1783.92ZM1057.34 1780.66C1056.81 1780.72 1056.28 1780.78 1055.75 1780.84L1781.9 1054.69C1781.84 1055.23 1781.78 1055.76 1781.72 1056.29L1057.34 1780.66ZM1094.42 1775.58C1093.86 1775.67 1093.3 1775.76 1092.74 1775.85L1776.92 1091.67C1776.84 1092.23 1776.75 1092.79 1776.66 1093.35L1094.42 1775.58ZM1133.69 1768.31C1133.1 1768.43 1132.5 1768.56 1131.91 1768.68L1769.78 1130.81C1769.65 1131.41 1769.53 1132.01 1769.4 1132.6L1133.69 1768.31ZM1175.7 1758.3C1175.06 1758.47 1174.42 1758.64 1173.78 1758.81L1759.93 1172.67C1759.76 1173.31 1759.59 1173.95 1759.42 1174.59L1175.7 1758.3ZM1221.26 1744.74C1220.56 1744.97 1219.86 1745.2 1219.16 1745.43L1746.56 1218.03C1746.34 1218.73 1746.11 1219.43 1745.88 1220.13L1221.26 1744.74ZM1271.77 1726.23C1270.98 1726.55 1270.19 1726.87 1269.4 1727.19L1728.34 1268.25C1728.02 1269.04 1727.71 1269.83 1727.39 1270.62L1271.77 1726.23ZM1329.98 1700.02C1329.05 1700.49 1328.11 1700.95 1327.18 1701.41L1702.59 1326C1702.12 1326.94 1701.66 1327.87 1701.2 1328.81L1329.98 1700.02ZM1403.3 1658.7C1402.03 1659.51 1400.76 1660.31 1399.49 1661.1L1662.29 1398.3C1661.5 1399.57 1660.7 1400.84 1659.9 1402.11L1403.3 1658.7Z" fill="#656565"/>
<rect x="540" y="540" width="846" height="846" fill="#0E0E0E"/>
<path d="M1386 0V1926" stroke="#6B6B6B"/>
<path d="M540 0V1926" stroke="#6B6B6B"/>
<path d="M0 540H1926" stroke="#6B6B6B" stroke-width="2"/>
<path d="M0 1386H1926" stroke="#6B6B6B" stroke-width="2"/>
<path d="M1560 962.5C1560 1291.94 1292.71 1559 963 1559C633.285 1559 366 1291.94 366 962.5C366 633.063 633.285 366 963 366C1292.71 366 1560 633.063 1560 962.5Z" stroke="#6B6B6B" stroke-width="2"/>
<path d="M1479.5 963C1479.5 1247.7 1248.26 1478.5 963 1478.5C677.744 1478.5 446.5 1247.7 446.5 963C446.5 678.298 677.744 447.5 963 447.5C1248.26 447.5 1479.5 678.298 1479.5 963Z" stroke="#6B6B6B"/>
<g filter="url(#filter0_bdd_1132_14152)">
<rect x="1386" y="1386" width="846" height="846" rx="200" transform="rotate(-180 1386 1386)" fill="url(#paint0_linear_1132_14152)"/>
</g>
<g filter="url(#filter1_d_1132_14152)">
<path d="M1004.63 729C1087.53 729 1152.17 748.544 1198.56 787.631C1244.52 827.147 1267.5 885.563 1267.5 962.877C1267.5 1039.76 1244.52 1097.75 1198.56 1136.84C1152.17 1176.35 1087.53 1196.11 1004.63 1196.11L920.872 1196.11C837.544 1196.11 772.9 1176.35 726.941 1136.84C680.981 1097.75 658.002 1039.76 658.002 962.877C658.002 885.563 680.981 827.147 726.941 787.63C772.9 748.544 837.544 729 920.872 729L1004.63 729ZM1162.48 962.877C1162.48 932.043 1157.54 906.053 1147.67 884.907C1139.58 867.583 1117.1 867.129 1103.57 880.63L912.915 1070.79C897.105 1086.56 905.629 1112.35 927.959 1112.35L997.543 1112.35C1051.66 1112.35 1092.68 1100.54 1120.6 1076.92C1148.52 1053.29 1162.48 1015.28 1162.48 962.877ZM997.543 812.758L927.959 812.758C873.839 812.758 832.819 824.57 804.9 848.194C776.981 872.247 763.021 910.475 763.021 962.877C763.021 993.945 768.128 1020.1 778.341 1041.33C786.576 1058.45 808.902 1058.77 822.351 1045.35L1012.97 855.222C1029.11 839.119 1020.34 812.758 997.543 812.758Z" fill="#2F2F2F"/>
</g>
</g>
<defs>
<filter id="filter0_bdd_1132_14152" x="508" y="508" width="910" height="910" filterUnits="userSpaceOnUse" color-interpolation-filters="sRGB">
<feFlood flood-opacity="0" result="BackgroundImageFix"/>
<feGaussianBlur in="BackgroundImageFix" stdDeviation="13.5144"/>
<feComposite in2="SourceAlpha" operator="in" result="effect1_backgroundBlur_1132_14152"/>
<feColorMatrix in="SourceAlpha" type="matrix" values="0 0 0 0 0 0 0 0 0 0 0 0 0 0 0 0 0 0 127 0" result="hardAlpha"/>
<feOffset/>
<feGaussianBlur stdDeviation="16"/>
<feComposite in2="hardAlpha" operator="out"/>
<feColorMatrix type="matrix" values="0 0 0 0 0 0 0 0 0 0 0 0 0 0 0 0 0 0 0.15 0"/>
<feBlend mode="normal" in2="effect1_backgroundBlur_1132_14152" result="effect2_dropShadow_1132_14152"/>
<feColorMatrix in="SourceAlpha" type="matrix" values="0 0 0 0 0 0 0 0 0 0 0 0 0 0 0 0 0 0 127 0" result="hardAlpha"/>
<feOffset dy="4"/>
<feGaussianBlur stdDeviation="4"/>
<feComposite in2="hardAlpha" operator="out"/>
<feColorMatrix type="matrix" values="0 0 0 0 0 0 0 0 0 0 0 0 0 0 0 0 0 0 0.25 0"/>
<feBlend mode="normal" in2="effect2_dropShadow_1132_14152" result="effect3_dropShadow_1132_14152"/>
<feBlend mode="normal" in="SourceGraphic" in2="effect3_dropShadow_1132_14152" result="shape"/>
</filter>
<filter id="filter1_d_1132_14152" x="626" y="708" width="673.5" height="531.11" filterUnits="userSpaceOnUse" color-interpolation-filters="sRGB">
<feFlood flood-opacity="0" result="BackgroundImageFix"/>
<feColorMatrix in="SourceAlpha" type="matrix" values="0 0 0 0 0 0 0 0 0 0 0 0 0 0 0 0 0 0 127 0" result="hardAlpha"/>
<feOffset dy="11"/>
<feGaussianBlur stdDeviation="16"/>
<feComposite in2="hardAlpha" operator="out"/>
<feColorMatrix type="matrix" values="0 0 0 0 0.209028 0 0 0 0 0.247106 0 0 0 0 0.257639 0 0 0 0.5 0"/>
<feBlend mode="normal" in2="BackgroundImageFix" result="effect1_dropShadow_1132_14152"/>
<feBlend mode="normal" in="SourceGraphic" in2="effect1_dropShadow_1132_14152" result="shape"/>
</filter>
<linearGradient id="paint0_linear_1132_14152" x1="1809" y1="2232" x2="1809" y2="1386" gradientUnits="userSpaceOnUse">
<stop stop-color="#F0F3F4"/>
<stop offset="1" stop-color="#DBE1E4"/>
</linearGradient>
<clipPath id="clip0_1132_14152">
<rect x="1926" y="1926" width="1926" height="1926" rx="8" transform="rotate(-180 1926 1926)" fill="white"/>
</clipPath>
</defs>
</svg>
