<svg viewBox="0 0 24 25" fill="none" xmlns="http://www.w3.org/2000/svg">
<path d="M2 9.57227V7.07227C2 4.58227 4.01 2.57227 6.5 2.57227H9" stroke-width="1.5" stroke-linecap="round" stroke-linejoin="round" style="stroke: currentColor;"></path>
<path d="M15 2.57227H17.5C19.99 2.57227 22 4.58227 22 7.07227V9.57227" stroke-width="1.5" stroke-linecap="round" stroke-linejoin="round" style="stroke: currentColor;"></path>
<path d="M22 16.5723V18.0723C22 20.5623 19.99 22.5723 17.5 22.5723H16" stroke-width="1.5" stroke-linecap="round" stroke-linejoin="round" style="stroke: currentColor;"></path>
<path d="M9 22.5723H6.5C4.01 22.5723 2 20.5623 2 18.0723V15.5723" stroke-width="1.5" stroke-linecap="round" stroke-linejoin="round" style="stroke: currentColor;"></path>
<path d="M18 12.5723V10.5723M6 12.5723H12H18H6ZM6 12.5723V10.5723V12.5723ZM6 12.5723V14.5723V12.5723ZM18 12.5723V14.5723V12.5723Z" stroke-width="1.5" stroke-linecap="round" stroke-linejoin="round" style="stroke: currentColor;"></path>
<path d="M12 6.57227H14M12 18.5723V6.57227V18.5723ZM12 18.5723H14H12ZM12 18.5723H10H12ZM12 6.57227H10H12Z" stroke-width="1.5" stroke-linecap="round" stroke-linejoin="round" style="stroke: currentColor;"></path>
</svg>