<svg fill="currentColor" viewBox="0 0 44 61" version="1.1" xmlns="http://www.w3.org/2000/svg" xmlns:xlink="http://www.w3.org/1999/xlink" xml:space="preserve" xmlns:serif="http://www.serif.com/" style="fill-rule:evenodd;clip-rule:evenodd;stroke-linejoin:round;stroke-miterlimit:2;">
    <path d="M10.818,0.421L17.317,0.421L17.317,3.139L13.536,3.139L13.536,5.857L17.317,5.857L17.317,8.575L10.818,8.575L10.818,0.421ZM18.617,0.421L25.116,0.421L25.116,2.785L21.334,2.785L21.334,3.257L25.116,3.257L25.116,8.693L18.617,8.693L18.617,6.211L22.398,6.211L22.398,5.739L18.617,5.739L18.617,0.421ZM26.412,0.421L32.911,0.421L32.911,2.785L29.129,2.785L29.129,3.257L32.911,3.257L32.911,8.693L26.412,8.693L26.412,6.211L30.193,6.211L30.193,5.739L26.412,5.739L26.412,0.421ZM39.687,56.055L22.135,60.921L4.631,56.062L0.73,12.312L43.592,12.312L39.687,56.055ZM35.583,21.255L8.705,21.255L9.193,26.621L29.703,26.621L29.215,32.116L9.672,32.116L10.153,37.481L28.749,37.481L28.126,44.44L22.142,46.057L22.137,46.059L16.161,44.445L15.779,40.166L10.393,40.166L11.145,48.591L22.136,51.642L22.161,51.635L22.161,51.633L33.142,48.589L34.484,33.556L34.615,32.116L35.583,21.255Z" style="fill: currentColor;"></path>
</svg>