<svg viewBox="0 0 28 23" fill="none" xmlns="http://www.w3.org/2000/svg">
<path d="M6.68217 0.0313364C6.17723 0.0240579 5.26509 0.0296821 4.21648 0.161654C3.49575 0.252363 2.74725 0.392072 2.05938 0.582521C1.67848 0.6856 1.36083 0.811639 1.0851 0.991751C0.770315 1.19738 0.511803 1.47194 0.304452 1.83621C0.11102 2.17682 -0.0710532 2.55183 0.0277655 2.93029C0.111867 3.24987 0.545905 3.35517 0.937975 3.42128C1.2912 3.47595 2.09221 3.51759 2.30457 3.25898C2.36441 3.1967 2.3914 3.02023 2.31082 2.90362C2.23092 2.76275 2.02919 2.66139 1.83575 2.62565C1.67249 2.59583 1.39826 2.5686 1.22714 2.54424C1.10927 2.52746 1.04792 2.50708 1.01632 2.49033C1.00714 2.48546 1.00046 2.48091 0.995649 2.47683C0.986842 2.46937 0.985794 2.46106 0.985794 2.46106C0.985794 2.46106 0.988828 2.45286 0.996043 2.44568C1.00529 2.43647 1.01883 2.42379 1.03252 2.41386C1.16842 2.32587 1.6052 2.20199 1.71612 2.17367C2.21573 2.03508 2.98435 1.95304 3.61218 1.92038C4.23252 1.88811 4.8619 1.88802 5.37639 1.90707C7.45512 1.97336 9.47015 2.30794 11.4915 2.88484C12.587 3.19749 13.7048 3.58663 14.8885 4.05111C16.5517 4.71056 18.2595 5.61292 19.8352 6.72301C21.2318 7.70693 22.4774 8.82208 23.4434 10.0544C24.028 10.8078 24.7284 11.943 25.078 13.0454C25.1969 13.4202 25.2983 13.8499 25.3091 14.3567C25.3196 14.8479 25.2448 15.4133 25.0329 15.9695C24.6344 17.0159 23.7932 17.9924 22.4075 18.7167C21.8954 18.9843 21.3083 19.2192 20.6422 19.4087C19.9236 19.6132 19.1827 19.7445 18.4453 19.8242C17.5753 19.9183 16.7066 19.9384 15.8227 19.915C15.6986 19.9117 15.4368 19.8962 15.1394 19.8692C14.3819 19.8005 13.6929 19.6824 13.2971 19.6077L13.1607 13.2078C14.1529 13.2228 15.2439 13.3396 16.2732 13.5191C16.848 13.6192 17.8179 13.8136 19.0147 14.1998C19.2548 14.281 19.541 14.455 19.5641 14.7094C19.5734 14.8173 19.5349 14.9115 19.4668 15.0029C19.2868 15.2445 18.9913 15.425 18.7415 15.5463C18.5911 15.6193 18.4602 15.674 18.4003 15.7414C18.3352 15.8298 18.3301 15.9561 18.4205 16.0276C18.5443 16.1254 18.7379 16.1945 18.9346 16.2393C19.9267 16.4653 20.5879 16.0204 20.9724 15.5977C21.3884 15.1402 21.5074 14.7855 21.5467 14.4141C21.614 13.7769 21.323 13.2775 21.176 13.0707C20.8109 12.5569 20.2499 12.2115 19.7976 11.995C18.7724 11.5044 17.6023 11.2519 17.0084 11.1462C16.2527 11.0117 15.2911 10.9029 14.1801 10.8806C13.6631 10.8702 13.1431 10.8953 13.1431 10.8953C13.1431 10.8953 13.122 10.027 13.0842 9.45091C13.0211 8.50267 12.7584 6.64191 11.8963 6.10577C11.7386 6.00905 11.5451 5.9986 11.4358 6.14577C11.2676 6.36444 11.1036 7.19711 11.0658 7.41157C11.0297 7.61578 10.9924 7.87317 10.9571 8.14647C10.9016 8.57597 10.8546 9.05485 10.8233 9.44263C10.8058 9.65842 10.7578 10.3626 10.7485 11.1066C10.738 11.1171 10.7231 11.1336 10.7084 11.1441C10.7084 11.1441 10.3206 11.2026 9.82525 11.3011C8.19586 11.6253 7.06449 12.0759 6.62109 12.2705C5.82844 12.6174 4.6913 13.2304 4.34609 14.0345C4.26609 14.2334 4.23245 14.3581 4.22299 14.5611C4.20208 15.0094 4.36707 15.404 4.50799 15.6549C4.88186 16.3607 5.6306 17.1221 6.25999 17.6897C6.71415 18.0993 7.3757 18.609 7.90793 18.9726C8.3416 19.2688 8.66907 19.4777 8.972 19.656C9.32523 19.864 9.67119 20.0488 10.024 20.2167C10.215 20.3077 10.4501 20.4225 10.6663 20.5251C10.6663 20.5251 10.6985 20.8284 10.7407 21.1755C10.7835 21.5474 10.8211 21.9247 10.9692 22.2723C11.0258 22.3988 11.0912 22.5114 11.1805 22.6113C11.4286 22.889 11.7079 22.9469 11.8244 22.9681C12.0614 23.011 12.287 22.9877 12.5249 22.9429C12.6235 22.9245 12.7246 22.8898 12.8027 22.8493C12.9337 22.7813 13.0351 22.679 13.1049 22.5328C13.21 22.3226 13.2478 21.9873 13.2507 21.9445C13.2638 21.7518 13.2546 21.5352 13.2546 21.5352C13.2546 21.5352 14.0194 21.7171 14.5534 21.8138C15.4294 21.9681 16.2704 22.0599 17.268 22.0753C18.4718 22.0938 19.756 21.939 21.1315 21.6071C21.9628 21.4065 22.7537 21.1409 23.5263 20.7823C24.2431 20.4496 24.8838 20.0532 25.4397 19.5943C25.8572 19.2497 26.2925 18.8164 26.7119 18.2207C26.8313 18.0512 26.9368 17.8871 27.0149 17.7519C27.039 17.7103 27.1055 17.6129 27.1937 17.4639C27.4388 17.0497 27.7431 16.4098 27.9018 15.5946C27.9444 15.3527 27.9753 15.115 27.9904 14.8771C28.0489 13.8366 27.8376 12.7878 27.4304 11.8311C27.3391 11.6064 27.0131 10.8103 26.3123 9.80134C25.7009 8.92114 24.9899 8.10292 24.2462 7.36061C23.752 6.86738 23.3769 6.52216 22.7399 5.98778C21.8377 5.23934 20.9771 4.67668 20.7122 4.50217C19.8374 3.92895 18.8247 3.36615 17.9363 2.9367C16.5043 2.24455 15.1051 1.71387 13.7113 1.28234C13.2275 1.13256 12.7781 1.0054 12.3749 0.898131C11.539 0.675773 10.2736 0.370229 8.9325 0.198228C8.12125 0.0941834 7.34008 0.0408193 6.68217 0.0313364ZM10.6643 13.3111C10.6643 13.3111 10.6432 14.2574 10.639 15.214C10.6344 16.2021 10.646 17.2 10.6576 17.9034C10.6672 18.4902 10.6768 18.872 10.6768 18.872C10.6768 18.872 9.99503 18.6489 9.64244 18.4729C8.995 18.1945 8.3787 17.8694 7.79056 17.502C7.04649 17.0373 6.42168 16.5631 5.83834 16.0395C5.71897 15.9324 5.5084 15.7294 5.40257 15.6223C5.13535 15.3574 4.86685 15.0886 4.93055 14.7283C4.97891 14.4529 5.56831 14.1917 5.79473 14.129C6.33353 13.9755 6.87765 13.8359 7.45386 13.7182C8.0663 13.5931 8.65884 13.4965 9.08458 13.4499C9.67177 13.3602 10.6643 13.3111 10.6643 13.3111Z" style="fill: currentColor;"></path>
</svg>