<?xml version="1.0" encoding="UTF-8" standalone="no"?>
<!DOCTYPE svg PUBLIC "-//W3C//DTD SVG 1.1//EN" "http://www.w3.org/Graphics/SVG/1.1/DTD/svg11.dtd">
<svg fill="currentColor" width="100%" height="100%" viewBox="0 0 43 61" version="1.1" xmlns="http://www.w3.org/2000/svg" xmlns:xlink="http://www.w3.org/1999/xlink" xml:space="preserve" xmlns:serif="http://www.serif.com/" style="fill-rule:evenodd;clip-rule:evenodd;stroke-linejoin:round;stroke-miterlimit:2;">
    <path d="M5.841,21.171C5.148,20.732 4.501,20.215 3.912,19.626C1.802,17.517 0.617,14.655 0.617,11.671C0.617,8.688 1.802,5.826 3.912,3.717C6.022,1.607 8.883,0.421 11.867,0.421L30.867,0.421C33.851,0.421 36.712,1.607 38.822,3.717C40.932,5.826 42.117,8.688 42.117,11.671C42.117,14.655 40.932,17.517 38.822,19.626C38.233,20.215 37.585,20.732 36.893,21.171C37.585,21.611 38.233,22.128 38.822,22.717C40.932,24.826 42.117,27.688 42.117,30.671C42.117,33.655 40.932,36.517 38.822,38.626C36.712,40.736 33.851,41.921 30.867,41.921C27.979,41.921 25.205,40.811 23.117,38.826L23.117,49.671C23.117,52.655 21.932,55.517 19.822,57.626C17.712,59.736 14.851,60.921 11.867,60.921C8.883,60.921 6.022,59.736 3.912,57.626C1.802,55.517 0.617,52.655 0.617,49.671C0.617,46.688 1.802,43.826 3.912,41.717C4.501,41.128 5.148,40.611 5.841,40.171C5.148,39.732 4.501,39.215 3.912,38.626C1.802,36.517 0.617,33.655 0.617,30.671C0.617,27.688 1.802,24.826 3.912,22.717C4.501,22.128 5.148,21.611 5.841,21.171ZM19.617,3.921L11.867,3.921C9.811,3.921 7.84,4.738 6.387,6.191C4.933,7.645 4.117,9.616 4.117,11.671C4.117,13.727 4.933,15.698 6.387,17.152C7.84,18.605 9.811,19.421 11.867,19.421L19.617,19.421L19.617,3.921ZM23.117,3.921L23.117,19.421L30.867,19.421C32.922,19.421 34.893,18.605 36.347,17.152C37.8,15.698 38.617,13.727 38.617,11.671C38.617,9.616 37.8,7.645 36.347,6.191C34.893,4.738 32.922,3.921 30.867,3.921L23.117,3.921ZM23.117,30.671C23.117,32.727 23.933,34.698 25.387,36.152C26.84,37.605 28.811,38.421 30.867,38.421C32.922,38.421 34.893,37.605 36.347,36.152C37.8,34.698 38.617,32.727 38.617,30.671C38.617,28.616 37.8,26.645 36.347,25.191C34.893,23.738 32.922,22.921 30.867,22.921C28.811,22.921 26.84,23.738 25.387,25.191C23.933,26.645 23.117,28.616 23.117,30.671ZM19.617,41.921L11.867,41.921C9.811,41.921 7.84,42.738 6.387,44.191C4.933,45.645 4.117,47.616 4.117,49.671C4.117,51.727 4.933,53.698 6.387,55.152C7.84,56.605 9.811,57.421 11.867,57.421C13.922,57.421 15.893,56.605 17.347,55.152C18.8,53.698 19.617,51.727 19.617,49.671L19.617,41.921ZM11.867,38.421L19.617,38.421L19.617,22.921L11.867,22.921C9.811,22.921 7.84,23.738 6.387,25.191C4.933,26.645 4.117,28.616 4.117,30.671C4.117,32.727 4.933,34.698 6.387,36.152C7.84,37.605 9.811,38.421 11.867,38.421Z"/>
</svg>
