<svg viewBox="0 0 24 25" fill="none" xmlns="http://www.w3.org/2000/svg">
<rect x="0.75" y="1.44727" width="22.5" height="22.5" rx="11.25" stroke-width="1.5" stroke-linecap="round" stroke-linejoin="round" style="stroke: currentColor;"></rect>
<path d="M11.924 17.9493C11.14 17.9493 10.4773 17.7906 9.936 17.4733C9.39467 17.1466 8.984 16.7219 8.704 16.1993C8.424 15.6766 8.284 15.1213 8.284 14.5333H9.6C9.6 14.9626 9.69333 15.3453 9.88 15.6813C10.076 16.0173 10.3467 16.2833 10.692 16.4793C11.0373 16.6753 11.448 16.7733 11.924 16.7733C12.3907 16.7733 12.7967 16.6799 13.142 16.4933C13.4967 16.2973 13.772 16.0313 13.968 15.6953C14.164 15.3499 14.262 14.9626 14.262 14.5333C14.262 14.1039 14.164 13.7166 13.968 13.3713C13.7813 13.0259 13.5107 12.7506 13.156 12.5453C12.8107 12.3399 12.4 12.2373 11.924 12.2373C11.5787 12.2373 11.2287 12.2979 10.874 12.4193C10.5193 12.5313 10.2347 12.6946 10.02 12.9093H8.788L9.306 7.47727H14.668V8.62527H10.09L10.426 8.16326L10.034 12.1253L9.67 11.9993C9.94067 11.7286 10.2673 11.5139 10.65 11.3553C11.042 11.1966 11.4853 11.1173 11.98 11.1173C12.764 11.1173 13.422 11.2806 13.954 11.6073C14.486 11.9246 14.8873 12.3399 15.158 12.8533C15.438 13.3573 15.578 13.8846 15.578 14.4353V14.6313C15.578 15.1819 15.438 15.7139 15.158 16.2273C14.878 16.7313 14.4627 17.1466 13.912 17.4733C13.3707 17.7906 12.708 17.9493 11.924 17.9493Z" style="fill: currentColor;"></path>
</svg>