<svg viewBox="0 0 24 25" fill="none" xmlns="http://www.w3.org/2000/svg">
<path d="M20 7.37773V17.4777C19.84 17.4477 19.67 17.4277 19.5 17.4277C18.12 17.4277 17 18.5477 17 19.9277C17 20.0977 17.02 20.2677 17.05 20.4277H6.95C6.98 20.2677 7 20.0977 7 19.9277C7 18.5477 5.88 17.4277 4.5 17.4277C4.33 17.4277 4.16 17.4477 4 17.4777V7.37773C4.16 7.40773 4.33 7.42773 4.5 7.42773C5.88 7.42773 7 6.30773 7 4.92773C7 4.75773 6.98 4.58773 6.95 4.42773H17.05C17.02 4.58773 17 4.75773 17 4.92773C17 6.30773 18.12 7.42773 19.5 7.42773C19.67 7.42773 19.84 7.40773 20 7.37773Z" stroke-width="1.5" stroke-linecap="round" stroke-linejoin="round" style="stroke: currentColor;"></path>
<path d="M7 4.92773C7 6.30773 5.88 7.42773 4.5 7.42773C4.33 7.42773 4.16 7.40773 4 7.37773C2.86 7.14773 2 6.13773 2 4.92773C2 3.54773 3.12 2.42773 4.5 2.42773C5.71 2.42773 6.72 3.28773 6.95 4.42773C6.98 4.58773 7 4.75773 7 4.92773Z" stroke-width="1.5" stroke-linecap="round" stroke-linejoin="round" style="stroke: currentColor;"></path>
<path d="M22 4.92773C22 6.13773 21.14 7.14773 20 7.37773C19.84 7.40773 19.67 7.42773 19.5 7.42773C18.12 7.42773 17 6.30773 17 4.92773C17 4.75773 17.02 4.58773 17.05 4.42773C17.28 3.28773 18.29 2.42773 19.5 2.42773C20.88 2.42773 22 3.54773 22 4.92773Z" stroke-width="1.5" stroke-linecap="round" stroke-linejoin="round" style="stroke: currentColor;"></path>
<path d="M7 19.9277C7 20.0977 6.98 20.2677 6.95 20.4277C6.72 21.5677 5.71 22.4277 4.5 22.4277C3.12 22.4277 2 21.3077 2 19.9277C2 18.7177 2.86 17.7077 4 17.4777C4.16 17.4477 4.33 17.4277 4.5 17.4277C5.88 17.4277 7 18.5477 7 19.9277Z" stroke-width="1.5" stroke-linecap="round" stroke-linejoin="round" style="stroke: currentColor;"></path>
<path d="M22 19.9277C22 21.3077 20.88 22.4277 19.5 22.4277C18.29 22.4277 17.28 21.5677 17.05 20.4277C17.02 20.2677 17 20.0977 17 19.9277C17 18.5477 18.12 17.4277 19.5 17.4277C19.67 17.4277 19.84 17.4477 20 17.4777C21.14 17.7077 22 18.7177 22 19.9277Z" stroke-width="1.5" stroke-linecap="round" stroke-linejoin="round" style="stroke: currentColor;"></path>
</svg>