<svg width="22" height="23" viewBox="0 0 22 23" fill="none" xmlns="http://www.w3.org/2000/svg">
<path d="M8 19.0004C3 20.5004 3 16.5004 1 16.0004M15 22.0004V18.1304C15.0375 17.6536 14.9731 17.1742 14.811 16.7242C14.6489 16.2742 14.3929 15.8638 14.06 15.5204C17.2 15.1704 20.5 13.9804 20.5 8.52043C20.4997 7.12425 19.9627 5.78162 19 4.77043C19.4559 3.54893 19.4236 2.19878 18.91 1.00043C18.91 1.00043 17.73 0.650426 15 2.48043C12.708 1.85925 10.292 1.85925 8 2.48043C5.27 0.650426 4.09 1.00043 4.09 1.00043C3.57638 2.19878 3.54414 3.54893 4 4.77043C3.03013 5.78913 2.49252 7.14389 2.5 8.55043C2.5 13.9704 5.8 15.1604 8.94 15.5504C8.611 15.8904 8.35726 16.2958 8.19531 16.7403C8.03335 17.1849 7.96681 17.6585 8 18.1304V22.0004" stroke="currentColor" stroke-width="2" stroke-linecap="round" stroke-linejoin="round"/>
</svg>
