<?xml version="1.0" encoding="UTF-8" standalone="no"?>
<!DOCTYPE svg PUBLIC "-//W3C//DTD SVG 1.1//EN" "http://www.w3.org/Graphics/SVG/1.1/DTD/svg11.dtd">
<svg fill="currentColor" width="100%" height="100%" viewBox="0 0 44 61" version="1.1" xmlns="http://www.w3.org/2000/svg" xmlns:xlink="http://www.w3.org/1999/xlink" xml:space="preserve" xmlns:serif="http://www.serif.com/" style="fill-rule:evenodd;clip-rule:evenodd;stroke-linejoin:round;stroke-miterlimit:2;">
    <path d="M4.334,0.421L7.052,0.421L7.052,3.116L9.557,3.116L9.557,0.421L12.275,0.421L12.275,8.575L9.557,8.575L9.557,5.857L7.076,5.857L7.076,8.575L4.334,8.575L4.334,0.421ZM15.867,3.139L13.468,3.139L13.468,0.421L20.995,0.421L20.995,3.139L18.585,3.139L18.585,8.575L15.867,8.575L15.867,3.139ZM22.189,0.421L25.037,0.421L26.786,3.293L28.534,0.421L31.382,0.421L31.382,8.575L28.664,8.575L28.664,4.534L26.762,7.464L24.86,4.534L24.86,8.575L22.189,8.575L22.189,0.421ZM32.729,0.421L35.447,0.421L35.447,5.881L39.299,5.881L39.299,8.575L32.729,8.575L32.729,0.421ZM0.337,12.309L43.207,12.309L39.307,56.053L21.736,60.921L4.236,56.077L0.337,12.309ZM8.297,21.256L9.762,37.468L21.746,37.468L21.746,37.48L28.363,37.48L27.737,44.451L21.757,46.055L15.765,44.451L15.387,40.162L9.999,40.162L10.755,48.587L21.768,51.659L21.768,51.63L32.735,48.587L34.212,32.115L14.678,32.115L14.182,26.62L34.697,26.62L35.193,21.256L8.297,21.256Z"/>
</svg>
