<svg fill="currentColor" viewBox="0 0 61 61" version="1.1" xmlns="http://www.w3.org/2000/svg" xmlns:xlink="http://www.w3.org/1999/xlink" xml:space="preserve" xmlns:serif="http://www.serif.com/" style="fill-rule:evenodd;clip-rule:evenodd;stroke-linejoin:round;stroke-miterlimit:2;">
    <path d="M0.283,0.421L60.783,0.421L60.783,60.921L0.283,60.921L0.283,0.421ZM46.532,51.141C43.728,51.141 42.143,49.679 40.924,47.689L36.304,50.373C37.973,53.67 41.384,56.187 46.664,56.187C52.064,56.187 56.085,53.382 56.085,48.264C56.085,43.516 53.357,41.404 48.527,39.333L47.106,38.724C44.667,37.668 43.61,36.977 43.61,35.272C43.61,33.892 44.666,32.835 46.331,32.835C47.963,32.835 49.015,33.524 49.99,35.272L54.417,32.429C52.544,29.135 49.945,27.877 46.331,27.877C41.254,27.877 38.005,31.123 38.005,35.387C38.005,40.016 40.73,42.205 44.833,43.953L46.254,44.563C48.847,45.697 50.393,46.387 50.393,48.337C50.393,49.964 48.888,51.141 46.532,51.141ZM24.5,51.106C22.547,51.106 21.734,49.766 20.841,48.181L16.213,50.983C17.554,53.82 20.19,56.176 24.742,56.176C29.78,56.176 33.231,53.497 33.231,47.61L33.231,28.202L27.546,28.202L27.546,47.533C27.546,50.375 26.368,51.106 24.5,51.106Z" style="fill: currentColor;"></path>
</svg>