<svg viewBox="0 0 24 25" fill="none" xmlns="http://www.w3.org/2000/svg">
<path d="M12 22.2852C17.5228 22.2852 22 17.808 22 12.2852C22 6.76231 17.5228 2.28516 12 2.28516C6.47715 2.28516 2 6.76231 2 12.2852C2 17.808 6.47715 22.2852 12 22.2852Z" stroke-width="1.5" stroke-linecap="round" stroke-linejoin="round" style="stroke: currentColor;"></path>
<path d="M8.67938 12.195L10.3294 12.6049L9.37939 16.445C9.15939 17.345 9.59937 17.6449 10.3594 17.1149L15.5394 13.525C16.1694 13.085 16.0794 12.575 15.3294 12.385L13.6794 11.975L14.6294 8.13497C14.8494 7.23497 14.4094 6.93499 13.6494 7.46499L8.46939 11.055C7.83939 11.495 7.92938 12.005 8.67938 12.195Z" stroke-width="1.5" stroke-miterlimit="10" stroke-linecap="round" stroke-linejoin="round" style="stroke: currentColor;"></path>
</svg>