<svg fill="currentColor" viewBox="0 0 62 61" version="1.1" xmlns="http://www.w3.org/2000/svg" xmlns:xlink="http://www.w3.org/1999/xlink" xml:space="preserve" xmlns:serif="http://www.serif.com/" style="fill-rule:evenodd;clip-rule:evenodd;stroke-linejoin:round;stroke-miterlimit:2;">
    <path d="M30.719,0.424L30.718,0.422C33.213,0.411 35.814,0.598 38.321,1.011C42.283,1.668 45.618,4.604 45.618,8.515L45.618,22.259C45.618,26.287 42.378,29.592 38.321,29.592L23.747,29.592C18.799,29.592 14.632,33.796 14.632,38.56L14.632,45.155L9.615,45.155C5.374,45.155 2.897,42.112 1.86,37.839C0.461,32.1 0.52,28.666 1.86,23.169C3.019,18.375 6.735,15.853 10.975,15.853L31.04,15.853L31.04,14.019L16.45,14.019L16.45,8.518C16.45,4.351 17.571,2.092 23.748,1.013C25.842,0.646 28.224,0.436 30.719,0.424ZM22.828,4.849C21.316,4.849 20.09,6.086 20.09,7.608C20.09,9.124 21.316,10.35 22.828,10.35C24.335,10.35 25.566,9.124 25.566,7.608C25.566,6.086 24.335,4.849 22.828,4.849ZM47.437,15.849L47.442,15.851L52.917,15.851C57.165,15.851 59.166,18.991 60.214,23.167C61.673,28.965 61.738,33.315 60.214,37.837C58.74,42.227 57.157,45.153 52.917,45.153L31.045,45.153L31.045,46.987L45.619,46.987L45.619,52.489C45.619,56.651 41.995,58.769 38.321,59.821C32.798,61.407 28.366,61.164 23.748,59.821C19.889,58.701 16.45,56.4 16.45,52.489L16.45,38.745C16.45,34.792 19.755,31.412 23.748,31.412L38.321,31.412C43.178,31.412 47.437,27.23 47.437,22.261L47.437,15.849ZM39.241,50.658C37.734,50.658 36.503,51.884 36.503,53.4C36.503,54.922 37.734,56.159 39.241,56.159C40.753,56.159 41.979,54.922 41.979,53.4C41.979,51.884 40.753,50.658 39.241,50.658Z" style="fill: currentColor;"></path>
</svg>