<svg viewBox="0 0 24 25" fill="none" xmlns="http://www.w3.org/2000/svg">
<path d="M21.4687 19.1426V5.14258C21.4687 3.14258 20.4687 2.14258 18.4687 2.14258H14.4688C12.4688 2.14258 11.4688 3.14258 11.4688 5.14258V19.1426C11.4688 21.1426 12.4688 22.1426 14.4688 22.1426H18.4687C20.4687 22.1426 21.4687 21.1426 21.4687 19.1426Z" stroke-width="1.5" stroke-linecap="round" style="fill: currentColor;"></path>
<path d="M11.4688 6.14258H16.4687" stroke-width="1.5" stroke-linecap="round" style="fill: currentColor;"></path>
<path d="M11.4688 18.1426H15.4688" stroke-width="1.5" stroke-linecap="round" style="fill: currentColor;"></path>
<path d="M11.4688 14.0918L16.4687 14.1418" stroke-width="1.5" stroke-linecap="round" style="fill: currentColor;"></path>
<path d="M11.4688 10.1426H14.4688" stroke-width="1.5" stroke-linecap="round" style="fill: currentColor;"></path>
<path d="M5.49125 2.14258C3.86125 2.14258 2.53125 3.47258 2.53125 5.09258V18.0526C2.53125 18.5026 2.72125 19.1826 2.95125 19.5726L3.77125 20.9326C4.71125 22.5026 6.26125 22.5026 7.20125 20.9326L8.02125 19.5726C8.25125 19.1826 8.44125 18.5026 8.44125 18.0526V5.09258C8.44125 3.47258 7.11125 2.14258 5.49125 2.14258Z" stroke-width="1.5" stroke-linecap="round" style="fill: currentColor;"></path>
<path d="M8.44125 7.14258H2.53125" stroke-width="1.5" stroke-linecap="round" style="fill: currentColor;"></path>
</svg>