<svg fill="currentColor" viewBox="0 0 82 61" version="1.1" xmlns="http://www.w3.org/2000/svg" xmlns:xlink="http://www.w3.org/1999/xlink" xml:space="preserve" xmlns:serif="http://www.serif.com/" style="fill-rule:evenodd;clip-rule:evenodd;stroke-linejoin:round;stroke-miterlimit:2;">
    <path d="M69.942,35.201C67.127,35.215 64.681,35.893 62.633,36.895C61.882,35.407 61.13,34.081 60.998,33.108C60.85,31.974 60.673,31.281 60.85,29.925C61.027,28.57 61.823,26.639 61.808,26.492C61.793,26.345 61.631,25.652 60.01,25.637C58.39,25.623 56.99,25.947 56.828,26.374C56.665,26.801 56.356,27.774 56.15,28.776C55.87,30.25 52.908,35.51 51.213,38.265C50.668,37.19 50.197,36.247 50.094,35.495C49.946,34.361 49.769,33.668 49.946,32.312C50.123,30.957 50.919,29.026 50.904,28.879C50.889,28.732 50.727,28.039 49.106,28.025C47.485,28.01 46.086,28.334 45.923,28.761C45.761,29.189 45.584,30.191 45.246,31.163C44.907,32.136 40.972,40.918 39.941,43.187C39.411,44.351 38.954,45.28 38.63,45.913C38.63,45.913 38.615,45.957 38.571,46.031C38.291,46.576 38.128,46.871 38.128,46.871L38.128,46.886C37.907,47.283 37.672,47.652 37.554,47.652C37.465,47.652 37.303,46.591 37.583,45.147C38.173,42.097 39.573,37.352 39.558,37.19C39.558,37.101 39.823,36.276 38.644,35.849C37.495,35.422 37.082,36.129 36.979,36.129C36.876,36.129 36.802,36.379 36.802,36.379C36.802,36.379 38.084,31.045 34.356,31.045C32.028,31.045 28.816,33.594 27.224,35.893C26.222,36.438 24.086,37.602 21.802,38.855C20.932,39.341 20.034,39.827 19.194,40.284C19.135,40.225 19.076,40.152 19.017,40.093C14.508,35.274 6.168,31.87 6.521,25.402C6.654,23.044 7.464,16.855 22.539,9.34C34.946,3.225 44.818,4.92 46.528,8.677C48.974,14.041 41.238,24.002 28.418,25.446C23.526,25.991 20.962,24.105 20.314,23.398C19.636,22.661 19.533,22.617 19.282,22.764C18.87,22.985 19.135,23.648 19.282,24.031C19.665,25.033 21.242,26.801 23.909,27.671C26.267,28.437 31.999,28.864 38.939,26.183C46.704,23.177 52.775,14.822 50.992,7.822C49.209,0.72 37.421,-1.623 26.267,2.341C19.636,4.699 12.445,8.412 7.273,13.245C1.128,18.992 0.156,23.987 0.554,26.079C1.983,33.506 12.224,38.339 16.32,41.92C16.114,42.038 15.922,42.141 15.76,42.229C13.712,43.246 5.902,47.328 3.957,51.645C1.747,56.537 4.311,60.044 6.006,60.516C11.266,61.975 16.674,59.352 19.577,55.02C22.48,50.687 22.126,45.058 20.785,42.48C20.77,42.45 20.756,42.421 20.726,42.391C21.257,42.082 21.802,41.758 22.332,41.448C23.378,40.829 24.41,40.255 25.294,39.783C24.793,41.154 24.425,42.789 24.248,45.147C24.027,47.917 25.161,51.512 26.65,52.927C27.313,53.546 28.094,53.561 28.595,53.561C30.334,53.561 31.115,52.117 31.984,50.407C33.045,48.315 34.003,45.884 34.003,45.884C34.003,45.884 32.809,52.456 36.051,52.456C37.23,52.456 38.423,50.923 38.954,50.142L38.954,50.157C38.954,50.157 38.983,50.113 39.042,50.01C39.16,49.818 39.234,49.7 39.234,49.7L39.234,49.671C39.705,48.845 40.766,46.974 42.343,43.865C44.376,39.857 46.336,34.847 46.336,34.847C46.336,34.847 46.513,36.07 47.117,38.103C47.471,39.297 48.207,40.608 48.797,41.876C48.325,42.539 48.031,42.907 48.031,42.907L48.045,42.922C47.662,43.423 47.25,43.968 46.793,44.499C45.187,46.414 43.271,48.61 43.006,49.243C42.696,49.995 42.77,50.54 43.359,50.982C43.787,51.306 44.553,51.35 45.334,51.306C46.778,51.203 47.795,50.849 48.296,50.628C49.077,50.348 49.99,49.921 50.845,49.288C52.422,48.123 53.379,46.458 53.291,44.263C53.247,43.054 52.849,41.846 52.363,40.712C52.51,40.505 52.643,40.299 52.79,40.093C55.28,36.453 57.211,32.46 57.211,32.46C57.211,32.46 57.387,33.683 57.992,35.716C58.286,36.748 58.89,37.868 59.421,38.958C57.078,40.859 55.634,43.069 55.118,44.513C54.19,47.195 54.912,48.403 56.282,48.683C56.901,48.816 57.785,48.521 58.434,48.241C59.259,47.976 60.231,47.519 61.16,46.841C62.736,45.677 64.254,44.056 64.166,41.861C64.122,40.859 63.856,39.872 63.488,38.914C65.477,38.089 68.041,37.632 71.312,38.015C78.326,38.84 79.711,43.216 79.446,45.058C79.181,46.9 77.707,47.902 77.221,48.212C76.735,48.521 76.573,48.624 76.617,48.845C76.676,49.17 76.912,49.155 77.324,49.096C77.899,48.993 81.008,47.608 81.141,44.219C81.362,39.886 77.236,35.156 69.942,35.201ZM15.834,53.443C13.506,55.977 10.264,56.935 8.864,56.125C7.361,55.255 7.951,51.512 10.809,48.831C12.548,47.195 14.788,45.677 16.276,44.749C16.615,44.543 17.116,44.248 17.72,43.88C17.823,43.821 17.882,43.791 17.882,43.791C18,43.718 18.118,43.644 18.236,43.57C19.282,47.401 18.28,50.776 15.834,53.443ZM32.78,41.92C31.969,43.894 30.275,48.949 29.243,48.669C28.359,48.433 27.814,44.602 29.066,40.815C29.7,38.914 31.041,36.645 31.822,35.76C33.089,34.346 34.489,33.874 34.828,34.449C35.255,35.201 33.281,40.682 32.78,41.92ZM46.763,48.61C46.424,48.786 46.1,48.904 45.953,48.816C45.85,48.757 46.1,48.521 46.1,48.521C46.1,48.521 47.854,46.635 48.546,45.78C48.944,45.28 49.416,44.69 49.917,44.027L49.917,44.219C49.917,46.473 47.736,47.991 46.763,48.61ZM57.55,46.149C57.299,45.972 57.343,45.383 58.183,43.541C58.507,42.819 59.274,41.61 60.585,40.446C60.732,40.918 60.836,41.375 60.821,41.802C60.806,44.646 58.773,45.707 57.55,46.149Z" style="fill-rule: nonzero; fill: currentColor;"></path>
</svg>