<svg viewBox="0 0 24 25" fill="none" xmlns="http://www.w3.org/2000/svg">
<path d="M17 18.67H13L8.54999 21.6299C7.88999 22.0699 7 21.6 7 20.8V18.67C4 18.67 2 16.67 2 13.67V7.66992C2 4.66992 4 2.66992 7 2.66992H17C20 2.66992 22 4.66992 22 7.66992V13.67C22 16.67 20 18.67 17 18.67Z" stroke-width="1.5" stroke-miterlimit="10" stroke-linecap="round" stroke-linejoin="round" style="stroke: currentColor;"></path>
<path d="M11.9998 11.5996V11.3896C11.9998 10.7096 12.4198 10.3496 12.8398 10.0596C13.2498 9.77963 13.6598 9.41964 13.6598 8.75964C13.6598 7.83964 12.9198 7.09961 11.9998 7.09961C11.0798 7.09961 10.3398 7.83964 10.3398 8.75964" stroke-width="1.5" stroke-linecap="round" stroke-linejoin="round" style="stroke: currentColor;"></path>
<path d="M11.9955 13.9902H12.0045" stroke-width="1.5" stroke-linecap="round" stroke-linejoin="round" style="stroke: currentColor;"></path>
</svg>