<svg viewBox="0 0 28 28" fill="none" xmlns="http://www.w3.org/2000/svg">
<path d="M13.9999 0C6.26814 0 0 6.26812 0 14.0001C0 21.7324 6.26814 28 13.9999 28C21.7325 28 28 21.7324 28 14.0001C28 6.26862 21.7327 0 13.9999 0ZM20.4202 20.1921C20.1694 20.6034 19.6311 20.7338 19.2199 20.4814C15.9328 18.4735 11.7949 18.0188 6.92164 19.1322C6.45204 19.2392 5.98394 18.945 5.87695 18.4752C5.76945 18.0054 6.06251 17.5373 6.53328 17.4303C11.8662 16.2119 16.4407 16.7365 20.131 18.9918C20.5422 19.2442 20.6726 19.7809 20.4202 20.1921ZM22.1338 16.3801C21.8178 16.8937 21.1457 17.0558 20.6325 16.7398C16.8693 14.4267 11.133 13.7568 6.6819 15.108C6.10464 15.2824 5.49495 14.957 5.31974 14.3808C5.14588 13.8035 5.47137 13.1949 6.04763 13.0194C11.132 11.4767 17.4528 12.2239 21.7743 14.8796C22.2876 15.1956 22.4497 15.8675 22.1338 16.3801ZM22.2809 12.4105C17.7688 9.73044 10.3244 9.48402 6.01637 10.7915C5.32459 11.0014 4.59303 10.6108 4.38339 9.91902C4.17375 9.22689 4.56394 8.49581 5.25622 8.2855C10.2015 6.78421 18.4224 7.07427 23.6173 10.1583C24.2409 10.5276 24.4448 11.3312 24.0754 11.9526C23.7076 12.5749 22.9011 12.78 22.2809 12.4105Z" style="fill: currentColor;"></path>
</svg>