<svg fill="currentColor" viewBox="0 0 56 61" version="1.1" xmlns="http://www.w3.org/2000/svg" xmlns:xlink="http://www.w3.org/1999/xlink" xml:space="preserve" xmlns:serif="http://www.serif.com/" style="fill-rule:evenodd;clip-rule:evenodd;stroke-linejoin:round;stroke-miterlimit:2;">
    <path d="M55.287,10.715L55.287,50.628C55.287,52.531 54.085,54.446 51.643,56.024C47.213,58.887 38.287,60.921 27.888,60.921C17.489,60.921 8.562,58.887 4.132,56.024C1.69,54.446 0.488,52.531 0.488,50.628L0.488,10.715C0.488,8.815 1.698,6.898 4.151,5.32C8.601,2.459 17.551,0.421 27.888,0.421C38.224,0.421 47.174,2.459 51.624,5.32C54.078,6.898 55.287,8.815 55.287,10.715ZM3.969,10.715C3.969,11.242 4.295,11.714 4.769,12.188C5.495,12.916 6.567,13.576 7.9,14.182C12.405,16.231 19.683,17.527 27.888,17.527C36.092,17.527 43.37,16.231 47.875,14.182C49.208,13.576 50.28,12.916 51.007,12.188C51.48,11.714 51.806,11.242 51.806,10.715C51.806,10.188 51.48,9.716 51.007,9.242C50.28,8.514 49.208,7.854 47.875,7.248C43.37,5.2 36.092,3.903 27.888,3.903C19.683,3.903 12.405,5.2 7.9,7.248C6.567,7.854 5.495,8.514 4.769,9.242C4.295,9.716 3.969,10.188 3.969,10.715ZM3.969,30.673C3.969,31.202 4.292,31.677 4.764,32.153C5.486,32.881 6.551,33.539 7.878,34.144C12.367,36.192 19.635,37.485 27.888,37.485C36.14,37.485 43.408,36.192 47.898,34.144C49.224,33.539 50.289,32.881 51.011,32.153C51.483,31.677 51.806,31.202 51.806,30.673L51.806,15.991C51.746,16.03 51.685,16.07 51.624,16.11C47.174,18.971 38.224,21.009 27.888,21.009C17.551,21.009 8.601,18.971 4.151,16.11C4.09,16.07 4.029,16.03 3.969,15.991L3.969,30.673ZM51.806,35.962C51.752,35.998 51.698,36.034 51.643,36.069C47.213,38.931 38.287,40.966 27.888,40.966C17.489,40.966 8.562,38.931 4.132,36.069C4.077,36.034 4.023,35.998 3.969,35.962L3.969,50.628C3.969,51.158 4.292,51.633 4.764,52.109C5.486,52.836 6.551,53.494 7.878,54.099C12.367,56.147 19.635,57.44 27.888,57.44C36.14,57.44 43.408,56.147 47.898,54.099C49.224,53.494 50.289,52.836 51.011,52.109C51.483,51.633 51.806,51.158 51.806,50.628L51.806,35.962Z" style="fill: currentColor;"></path>
</svg>