<svg viewBox="0 0 24 25" fill="none" xmlns="http://www.w3.org/2000/svg">
<path d="M12 20.3574C16.1421 20.3574 19.5 16.9996 19.5 12.8574C19.5 8.71529 16.1421 5.35742 12 5.35742C7.85786 5.35742 4.5 8.71529 4.5 12.8574C4.5 16.9996 7.85786 20.3574 12 20.3574Z" stroke-width="1.5" stroke-linecap="round" stroke-linejoin="round" style="fill: currentColor;"></path>
<path d="M12 15.8574C13.6569 15.8574 15 14.5143 15 12.8574C15 11.2006 13.6569 9.85742 12 9.85742C10.3431 9.85742 9 11.2006 9 12.8574C9 14.5143 10.3431 15.8574 12 15.8574Z" stroke-width="1.5" stroke-linecap="round" stroke-linejoin="round" style="fill: currentColor;"></path>
<path d="M12 4.85742V2.85742" stroke-width="1.5" stroke-linecap="round" stroke-linejoin="round" style="fill: currentColor;"></path>
<path d="M4 12.8574H2" stroke-width="1.5" stroke-linecap="round" stroke-linejoin="round" style="fill: currentColor;"></path>
<path d="M12 20.8574V22.8574" stroke-width="1.5" stroke-linecap="round" stroke-linejoin="round" style="fill: currentColor;"></path>
<path d="M20 12.8574H22" stroke-width="1.5" stroke-linecap="round" stroke-linejoin="round" style="fill: currentColor;"></path>
</svg>