<svg viewBox="0 0 24 25" fill="none" xmlns="http://www.w3.org/2000/svg">
<rect x="0.75" y="1.44727" width="22.5" height="22.5" rx="11.25" stroke-width="1.5" stroke-linecap="round" stroke-linejoin="round" style="stroke: currentColor;"></rect>
<path d="M11.686 17.9493C10.9207 17.9493 10.272 17.7999 9.74 17.5013C9.208 17.2026 8.802 16.8059 8.522 16.3113C8.25133 15.8166 8.116 15.2799 8.116 14.7013H9.432C9.432 15.3359 9.63267 15.8399 10.034 16.2133C10.4447 16.5866 10.9953 16.7733 11.686 16.7733C12.1433 16.7733 12.54 16.6893 12.876 16.5213C13.212 16.3533 13.4733 16.1153 13.66 15.8073C13.8467 15.4899 13.94 15.1213 13.94 14.7013C13.94 14.0666 13.7347 13.5533 13.324 13.1613C12.9227 12.7693 12.3813 12.5733 11.7 12.5733C11.4107 12.5733 11.1587 12.6106 10.944 12.6853C10.7387 12.7506 10.5567 12.8346 10.398 12.9373L9.726 11.7333L13.632 8.87726L13.492 8.62527H8.522V7.47727H14.752V9.33927L11.518 11.6913L10.538 11.7333C10.6967 11.6773 10.8693 11.6306 11.056 11.5933C11.252 11.5559 11.4807 11.5373 11.742 11.5373C12.4887 11.5373 13.1233 11.6773 13.646 11.9573C14.1687 12.2373 14.5653 12.6106 14.836 13.0773C15.116 13.5439 15.256 14.0526 15.256 14.6033V14.7993C15.256 15.3406 15.116 15.8539 14.836 16.3393C14.5653 16.8153 14.164 17.2026 13.632 17.5013C13.1093 17.7999 12.4607 17.9493 11.686 17.9493Z" style="fill: currentColor;"></path>
</svg>