<svg viewBox="0 0 24 25" fill="none" xmlns="http://www.w3.org/2000/svg">
<rect x="0.75" y="1.44727" width="22.5" height="22.5" rx="11.25" stroke-width="1.5" stroke-linecap="round" stroke-linejoin="round" style="stroke: currentColor;"></rect>
<path d="M8.564 17.6973V16.0173C8.564 15.6066 8.62 15.2566 8.732 14.9673C8.85333 14.6779 9.05867 14.4166 9.348 14.1833C9.63733 13.9406 10.0293 13.7073 10.524 13.4833L12.442 12.6013C12.9087 12.3866 13.2773 12.1113 13.548 11.7753C13.8187 11.4299 13.954 10.9866 13.954 10.4453C13.954 9.79193 13.772 9.28327 13.408 8.91927C13.044 8.55527 12.5307 8.37327 11.868 8.37327C11.2147 8.37327 10.7013 8.55527 10.328 8.91927C9.95467 9.28327 9.768 9.79193 9.768 10.4453H8.452C8.452 9.85727 8.57333 9.31593 8.816 8.82127C9.068 8.3266 9.446 7.9346 9.95 7.64526C10.454 7.3466 11.0933 7.19726 11.868 7.19726C12.6427 7.19726 13.2773 7.3466 13.772 7.64526C14.276 7.9346 14.6493 8.31727 14.892 8.79327C15.144 9.26927 15.27 9.78727 15.27 10.3473V10.5433C15.27 11.2806 15.0553 11.9013 14.626 12.4053C14.206 12.9093 13.6367 13.3246 12.918 13.6513L11 14.5333C10.5707 14.7293 10.2813 14.9253 10.132 15.1213C9.98267 15.3173 9.908 15.5786 9.908 15.9053V17.1933L9.544 16.5493H15.396V17.6973H8.564Z" style="fill: currentColor;"></path>
</svg>