<?xml version="1.0" encoding="UTF-8" standalone="no"?>
<!DOCTYPE svg PUBLIC "-//W3C//DTD SVG 1.1//EN" "http://www.w3.org/Graphics/SVG/1.1/DTD/svg11.dtd">
<svg fill="currentColor" width="100%" height="100%" viewBox="0 0 62 61" version="1.1" xmlns="http://www.w3.org/2000/svg" xmlns:xlink="http://www.w3.org/1999/xlink" xml:space="preserve" xmlns:serif="http://www.serif.com/" style="fill-rule:evenodd;clip-rule:evenodd;stroke-linejoin:round;stroke-miterlimit:2;">
    <path d="M10.142,30.672L1.083,22.412C-0.02,21.406 -0.019,19.669 1.086,18.665L4.436,15.619C5.339,14.798 6.7,14.738 7.672,15.475L18.118,23.399L42.102,1.531C43.241,0.393 44.974,0.098 46.424,0.796L58.952,6.821C60.269,7.454 61.106,8.785 61.106,10.246L61.106,10.254L61.106,51.089L61.106,51.097C61.106,52.557 60.269,53.889 58.952,54.522L46.424,60.547C44.974,61.245 43.241,60.95 42.102,59.812L18.118,37.944L7.672,45.868C6.7,46.606 5.339,46.545 4.436,45.724L1.086,42.678C-0.019,41.674 -0.02,39.937 1.083,38.931L10.142,30.672ZM45.903,16.866L27.704,30.672L45.903,44.478L45.903,16.866Z"/>
</svg>
