<svg viewBox="0 0 28 22" fill="none" xmlns="http://www.w3.org/2000/svg">
<path d="M12.0761 21.4588C8.26779 21.4588 5.29809 20.561 3.16701 18.7653C1.05567 16.95 0 14.2664 0 10.7146C0 7.18252 1.05567 4.51867 3.16701 2.72304C5.29809 0.907681 8.26779 0 12.0761 0H15.9239C19.7519 0 22.7216 0.907681 24.833 2.72304C26.9443 4.51867 28 7.18252 28 10.7146C28 14.2664 26.9443 16.95 24.833 18.7653C22.7216 20.561 19.7519 21.4588 15.9239 21.4588H12.0761ZM4.82452 10.7146C4.82452 12.1311 5.05132 13.3251 5.50493 14.2965C5.87653 15.0923 6.90922 15.1132 7.53107 14.493L16.2894 5.75696C17.0157 5.03251 16.6241 3.84778 15.5983 3.84778H12.4017C9.91543 3.84778 8.031 4.39041 6.74841 5.47569C5.46581 6.56096 4.82452 8.30726 4.82452 10.7146ZM12.4017 17.611H15.5983C18.0846 17.611 19.969 17.0684 21.2516 15.9831C22.5342 14.8781 23.1755 13.1219 23.1755 10.7146C23.1755 9.28734 22.9409 8.086 22.4717 7.11058C22.0934 6.3242 21.0677 6.30942 20.4499 6.92568L11.693 15.6602C10.9514 16.4 11.3542 17.611 12.4017 17.611Z" style="fill: currentColor;"></path>
</svg>